<?xml version="1.0" ?><!-- Uploaded to: SVG Repo, www.svgrepo.com, Generator: SVG Repo Mixer Tools -->
<svg width="800px" height="800px" viewBox="0 0 64 64" id="icons" xmlns="http://www.w3.org/2000/svg"><defs><style>.cls-1{fill:#231f20;}</style></defs><title/><path class="cls-1" d="M58,9H6a2,2,0,0,0-2,2V53a2,2,0,0,0,2,2H58a2,2,0,0,0,2-2V11A2,2,0,0,0,58,9ZM35,13H45V25.55l-4-2.29a2,2,0,0,0-2,0l-4,2.29ZM8,13H20V51H8ZM56,51H24V13h7V29a2,2,0,0,0,3,1.74l6-3.44,6,3.44A2.06,2.06,0,0,0,47,31a2,2,0,0,0,1-.27A2,2,0,0,0,49,29V13h7Z"/></svg>