<svg xmlns="http://www.w3.org/2000/svg" width="88" height="70" viewBox="0 0 88 70" fill="none"><g clip-path="url(#clip0_279_324)"><path d="M64.5383 20.4259C64.5383 9.16404 55.2867 0 43.9173 0C32.5479 0 23.1848 9.16404 23.1848 20.4259C23.1848 23.6278 23.9651 26.7192 25.3027 29.3691C31.8791 21.7508 29.3154 13.6909 29.3154 13.6909L56.067 6.84543L42.1339 20.6467C41.1307 20.205 39.9046 20.4259 39.1243 21.1987C38.0097 22.3028 38.0097 24.0694 39.1243 25.0631C40.239 26.1672 41.9109 26.1672 43.0256 25.0631C43.8058 24.2902 44.0288 23.0757 43.6944 22.082L57.6275 8.28076L50.7167 34.7792C50.7167 34.7792 42.5797 32.3502 34.8886 38.7539C37.5638 40.0789 40.6848 40.8517 43.9173 40.8517C55.2867 40.9621 64.5383 31.7981 64.5383 20.4259Z" fill="#3F3F69"></path><path d="M50.7166 34.7792L57.6274 8.28076L43.5828 22.1924C43.9172 23.1861 43.8058 24.4006 42.914 25.1735C41.7994 26.2776 40.1274 26.2776 39.0128 25.1735L29.2039 34.8896C30.7644 36.4353 32.6593 37.7603 34.7771 38.754C42.5797 32.3502 50.7166 34.7792 50.7166 34.7792Z" fill="#65AFDB"></path><path d="M29.204 34.8896L39.0129 25.1735C37.8983 24.0694 37.8983 22.3029 39.0129 21.3092C39.7932 20.5363 41.0193 20.3155 42.0225 20.7571L56.0671 6.84546L29.3155 13.6909C29.3155 13.6909 31.7677 21.7508 25.3027 29.3691C26.3059 31.4669 27.6435 33.3439 29.204 34.8896Z" fill="white"></path><path d="M31.879 32.3501L21.8472 42.287L33.1051 36.2145" fill="#65AFDB"></path><path d="M2.45223 60.6152C1.67197 60.1735 1.11465 59.6215 0.66879 58.8486C0.22293 58.1861 0 57.3028 0 56.4196C0 55.5363 0.22293 54.653 0.66879 53.9905C1.11465 53.2177 1.67197 52.6656 2.45223 52.224C3.23248 51.7823 4.1242 51.5615 5.01592 51.5615C5.79618 51.5615 6.57643 51.6719 7.24522 52.0032C7.91401 52.3344 8.47134 52.6656 8.9172 53.2177L7.46815 54.5426C6.79936 53.7697 6.01911 53.4385 5.12739 53.4385C4.57006 53.4385 4.01274 53.5489 3.56688 53.7697C3.12102 53.9905 2.78662 54.3218 2.45223 54.8738C2.34076 55.3155 2.2293 55.8675 2.2293 56.4196C2.2293 56.9716 2.34076 57.5237 2.56369 57.9653C2.78662 58.4069 3.12102 58.7382 3.67834 59.0694C4.1242 59.2902 4.68153 59.4006 5.23885 59.4006C6.13057 59.4006 6.91083 59.0694 7.57962 58.2965L8.9172 59.5111C8.47134 60.0631 7.91401 60.5047 7.24522 60.7256C6.57643 61.0568 5.79618 61.1672 5.01592 61.1672C4.1242 61.1672 3.23248 61.0568 2.45223 60.6152Z" fill="#3F3F69"></path><path d="M19.0605 61.0567L17.277 58.5172H17.1656H15.2707V61.0567H13.1528V51.7822H17.1656C17.9458 51.7822 18.7261 51.8926 19.2834 52.2239C19.8407 52.4447 20.3981 52.8863 20.7325 53.4384C21.0668 53.9904 21.1783 54.5425 21.1783 55.2049C21.1783 55.8674 20.9554 56.5299 20.621 56.9715C20.2866 57.4131 19.8407 57.8548 19.1719 58.0756L21.2898 61.0567H19.0605ZM18.5032 53.88C18.1688 53.5488 17.6114 53.4384 17.0541 53.4384H15.2707V56.6403H17.0541C17.7229 56.6403 18.1688 56.5299 18.5032 56.1986C18.8375 55.8674 19.0605 55.5362 19.0605 54.9841C19.0605 54.6529 18.8375 54.2112 18.5032 53.88Z" fill="#3F3F69"></path><path d="M32.8822 59.2901V61.0567H25.637V51.7822H32.7707V53.5488H27.8663V55.5362H32.2134V57.1923H27.8663V59.2901H32.8822Z" fill="#3F3F69"></path><path d="M43.4714 59.0693H39.1243L38.344 61.0567H36.1147L40.3504 51.7822H42.4682L46.7039 61.0567H44.4746L43.4714 59.0693ZM42.8026 57.4131L41.3536 53.88L39.7931 57.4131H42.8026Z" fill="#3F3F69"></path><path d="M51.7198 53.5488H48.7102V51.7822H56.8471V53.5488H53.8376V61.0567H51.7198V53.5488Z" fill="#3F3F69"></path><path d="M60.7483 51.7822H62.8661V61.0567H60.7483V51.7822Z" fill="#3F3F69"></path><path d="M76.7993 51.7822L72.7866 61.0567H70.6687L66.656 51.7822H68.9968L71.8949 58.4068L74.7929 51.7822H76.7993Z" fill="#3F3F69"></path><path d="M87.5001 59.2901V61.0567H80.2549V51.7822H87.3886V53.5488H82.4842V55.5362H86.8313V57.1923H82.4842V59.2901H87.5001Z" fill="#3F3F69"></path><path d="M25.9714 66.9084H27.309C27.6434 66.9084 27.9778 67.0189 28.2007 67.1293C28.4237 67.2397 28.6466 67.4605 28.7581 67.6813C28.8695 67.9021 28.981 68.2334 28.981 68.4542C28.981 68.7854 28.8695 69.0062 28.7581 69.2271C28.6466 69.4479 28.4237 69.6687 28.2007 69.7791C27.9778 69.8895 27.6434 69.9999 27.309 69.9999H25.9714V66.9084ZM27.309 69.6687C27.5319 69.6687 27.7549 69.6687 27.9778 69.5583C28.2007 69.4479 28.3122 69.3375 28.4237 69.1166C28.5351 68.8958 28.5351 68.7854 28.5351 68.4542C28.5351 68.2334 28.5351 68.0126 28.4237 67.7917C28.3122 67.5709 28.2007 67.4605 27.9778 67.3501C27.7549 67.2397 27.5319 67.2397 27.309 67.2397H26.4173V69.5583H27.309V69.6687Z" fill="#65AFDB"></path><path d="M34.5543 69.6687V70.1103H32.325V66.9084H34.5543V67.3501H32.7708V68.3438H34.3313V68.675H32.7708V69.6687H34.5543Z" fill="#65AFDB"></path><path d="M38.0097 69.8895C37.7868 69.7791 37.5639 69.6687 37.4524 69.5583L37.6753 69.2271C37.7868 69.3375 37.8983 69.4479 38.1212 69.4479C38.3441 69.5583 38.4556 69.5583 38.6785 69.5583C38.9014 69.5583 39.1244 69.5583 39.2358 69.4479C39.3473 69.3375 39.4588 69.2271 39.4588 69.1166C39.4588 69.0062 39.4588 68.8958 39.3473 68.8958C39.2358 68.7854 39.2358 68.7854 39.1244 68.7854C39.0129 68.7854 38.9014 68.675 38.6785 68.675C38.4556 68.5646 38.2326 68.5646 38.1212 68.4542C38.0097 68.3438 37.8983 68.3438 37.7868 68.2334C37.6753 68.123 37.6753 67.9021 37.6753 67.7917C37.6753 67.5709 37.6753 67.4605 37.7868 67.3501C37.8983 67.2397 38.0097 67.1293 38.2326 67.0189C38.4556 66.9084 38.6785 66.9084 38.9014 66.9084C39.1244 66.9084 39.2358 66.9084 39.4588 67.0189C39.6817 67.0189 39.7932 67.1293 39.9046 67.2397L39.7932 67.5709C39.6817 67.4605 39.5702 67.4605 39.3473 67.3501C39.2358 67.3501 39.0129 67.2397 38.9014 67.2397C38.6785 67.2397 38.4556 67.2397 38.3441 67.3501C38.2327 67.4605 38.1212 67.5709 38.1212 67.6813C38.1212 67.7917 38.1212 67.9021 38.2326 67.9021C38.3441 68.0125 38.3441 68.0125 38.4556 68.0125C38.567 68.0125 38.6785 68.123 38.9014 68.123C39.1244 68.2334 39.3473 68.2334 39.4588 68.3438C39.5702 68.4542 39.6817 68.4542 39.7932 68.5646C39.9046 68.675 39.9046 68.8958 39.9046 69.0062C39.9046 69.1167 39.9046 69.3375 39.7932 69.4479C39.6817 69.5583 39.5702 69.6687 39.3473 69.7791C39.1244 69.8895 38.9014 69.8895 38.6785 69.8895C38.567 69.9999 38.2326 69.9999 38.0097 69.8895Z" fill="#65AFDB"></path><path d="M43.137 66.9084H43.5828V70.1103H43.137V66.9084Z" fill="#65AFDB"></path><path d="M49.2677 68.4542H49.7135V69.6688C49.6021 69.7792 49.3791 69.8896 49.1562 70C48.9333 70.1104 48.7103 70.1104 48.4874 70.1104C48.153 70.1104 47.9301 70 47.5957 69.8896C47.3728 69.7792 47.1498 69.5583 47.0384 69.3375C46.9269 69.0063 46.8154 68.7855 46.8154 68.4542C46.8154 68.123 46.9269 67.9022 47.0384 67.571C47.1498 67.3501 47.3728 67.1293 47.5957 67.0189C47.8186 66.9085 48.153 66.7981 48.4874 66.7981C48.7103 66.7981 48.9333 66.7981 49.1562 66.9085C49.3791 67.0189 49.4906 67.1293 49.7135 67.2397L49.3791 67.571C49.1562 67.3501 48.8218 67.2397 48.4874 67.2397C48.2645 67.2397 48.0415 67.2397 47.8186 67.3501C47.5957 67.4606 47.4842 67.571 47.3728 67.7918C47.2613 68.0126 47.2613 68.2334 47.2613 68.4542C47.2613 68.6751 47.2613 68.8959 47.3728 69.1167C47.4842 69.3375 47.5957 69.4479 47.8186 69.5583C48.0415 69.6688 48.2645 69.6688 48.4874 69.6688C48.8218 69.6688 49.0447 69.5583 49.2677 69.4479V68.4542Z" fill="#65AFDB"></path><path d="M55.844 66.9085V70.1104H55.5096L53.5032 67.6814V70H53.0574V66.7981H53.5032L55.3981 69.1167V66.7981H55.844V66.9085Z" fill="#65AFDB"></path><path d="M59.5224 69.8896C59.2995 69.7792 59.0766 69.6688 58.9651 69.5583L59.188 69.2271C59.2995 69.3375 59.4109 69.4479 59.6339 69.4479C59.8568 69.5583 59.9683 69.5583 60.1912 69.5583C60.4141 69.5583 60.6371 69.5583 60.7485 69.4479C60.86 69.3375 60.9715 69.2271 60.9715 69.1167C60.9715 69.0063 60.9715 68.8959 60.86 68.8959C60.7485 68.7855 60.7485 68.7855 60.6371 68.7855C60.5256 68.7855 60.4141 68.6751 60.1912 68.6751C59.9683 68.5647 59.7453 68.5647 59.6339 68.4542C59.5224 68.3438 59.4109 68.3438 59.2995 68.2334C59.188 68.123 59.0766 67.9022 59.0766 67.6814C59.0766 67.4606 59.0765 67.3501 59.188 67.2397C59.2995 67.1293 59.4109 67.0189 59.6339 66.9085C59.8568 66.7981 60.0797 66.7981 60.3027 66.7981C60.5256 66.7981 60.6371 66.7981 60.86 66.9085C61.0829 66.9085 61.1944 67.0189 61.3059 67.1293L61.1944 67.4606C61.0829 67.3501 60.9715 67.3501 60.7485 67.2397C60.6371 67.2397 60.4141 67.1293 60.3027 67.1293C60.0797 67.1293 59.8568 67.1293 59.7453 67.2397C59.6339 67.3501 59.5224 67.4606 59.5224 67.571C59.5224 67.6814 59.5224 67.7918 59.6339 67.7918C59.7453 67.9022 59.7453 67.9022 59.8568 67.9022C59.9683 67.9022 60.0797 68.0126 60.3027 68.0126C60.5256 68.123 60.7485 68.123 60.86 68.2334C60.9715 68.3438 61.0829 68.3438 61.1944 68.4542C61.3059 68.5647 61.3059 68.7855 61.3059 68.8959C61.3059 69.0063 61.3059 69.2271 61.1944 69.3375C61.0829 69.4479 60.9715 69.5583 60.7485 69.6688C60.5256 69.7792 60.3027 69.7792 60.0797 69.7792C59.9683 70 59.7453 70 59.5224 69.8896Z" fill="#65AFDB"></path></g><defs><clipPath id="clip0_279_324"><rect width="87.5" height="70" fill="white"></rect></clipPath></defs></svg>