<svg xmlns="http://www.w3.org/2000/svg" width="102" height="50" viewBox="0 0 102 50" fill="none"><g clip-path="url(#clip0_284_447)"><path d="M41.6567 29.744C41.2163 29.6117 40.7319 29.8764 40.5558 30.2736C37.4734 37.3786 30.7361 42.0124 23.0741 42.3654H23.0301C22.1934 42.4095 21.3567 42.4095 20.4761 42.3213C11.9774 41.6593 4.75573 35.7017 2.50997 27.4934C2.02559 25.7282 1.76138 23.9188 1.76138 22.0653C1.76138 20.2118 2.02559 18.4025 2.46593 16.6372C4.88783 7.89938 12.9462 1.76523 22.0173 1.76523C29.1949 1.76523 35.668 5.42807 39.3669 11.5622C39.543 11.8711 39.6311 12.2242 39.543 12.5772C39.4549 13.0627 39.1027 13.4157 38.6623 13.5481L34.5231 15.0044C33.9506 15.1809 33.3341 15.0044 32.9819 14.4748C30.3398 10.6796 26.0244 8.51721 21.4008 8.73786C14.7075 9.04678 9.11515 14.5631 8.71884 21.271C8.58673 23.654 9.07111 26.0371 10.1279 28.1112C12.4177 32.6125 16.9533 35.3928 22.0173 35.3928C22.2374 35.3928 22.4576 35.3928 22.6778 35.3928C22.6778 35.3928 22.6778 35.3928 22.7218 35.3928C26.5088 35.2162 30.0315 33.4069 32.4094 30.4501C32.4094 30.4501 32.4094 30.4501 32.4094 30.406C32.7617 29.9647 32.9819 29.391 32.8938 28.8173C32.7617 27.6258 31.7929 26.8314 30.6921 26.8314H25.4079C24.3951 26.8314 23.5144 27.4934 23.2502 28.5084L22.0173 33.3186C21.9732 33.5393 21.7971 33.6717 21.5769 33.6717C17.3936 33.5393 13.6067 31.1121 11.7132 27.361C10.3921 24.7573 10.0839 21.7123 10.9206 18.7996C12.3297 13.9894 16.7331 10.6355 21.7531 10.5031C25.6721 10.4148 29.327 12.2683 31.5728 15.4898C32.3654 16.6372 33.8185 17.1227 35.1396 16.6814L39.2348 15.2692C39.9833 15.0044 40.5998 14.519 40.9961 13.857C41.5686 12.842 41.5686 11.6505 40.9961 10.7237C36.945 4.10415 29.7233 0 22.0173 0C12.1535 0 3.39066 6.66372 0.792621 16.1959C0.264207 18.0936 0 20.0794 0 22.0653C0 24.0512 0.264207 26.0371 0.792621 27.9347C3.03838 36.1871 9.86373 42.3213 18.1422 43.8217C18.7587 43.9541 19.155 44.5719 19.0229 45.1898L18.1422 48.5437C18.0101 49.0733 18.2303 49.647 18.7147 49.8676C18.8468 49.9559 19.0229 49.9559 19.1991 49.9559C19.5513 49.9559 19.9036 49.7793 20.1238 49.4704L23.2943 44.5719C23.4704 44.3071 23.7786 44.0865 24.1309 44.0865C32.1012 43.3363 39.0146 38.3936 42.2731 30.9356C42.4052 30.4501 42.1851 29.8764 41.6567 29.744ZM25.0116 28.9497C25.0556 28.7732 25.2318 28.5966 25.452 28.5966H30.7361C30.9563 28.5966 31.0884 28.7732 31.1324 28.8173C31.1764 28.9056 31.2205 29.0821 31.0884 29.2586L31.0443 29.3027C29.371 31.3327 27.0812 32.7449 24.5713 33.3186C24.263 33.4069 23.9548 33.098 24.0429 32.7891L25.0116 28.9497Z" fill="#FE418B"></path><path d="M54.0303 7.41382C56.9806 7.41382 58.9181 9.00252 59.0942 11.6062H56.0118C55.7917 10.6354 55.1752 10.1499 54.1183 10.1499C52.8413 10.1499 52.0047 11.1208 52.0047 12.6654C52.0047 14.2541 52.7973 15.1808 54.0743 15.1808C55.1311 15.1808 55.7917 14.6954 56.0118 13.7245H59.0942C58.8741 16.2399 56.8925 17.9169 54.1183 17.9169C50.9919 17.9169 48.9663 15.8428 48.9663 12.6654C48.9663 9.62035 51.0359 7.41382 54.0303 7.41382Z" fill="#2C3DA8"></path><path d="M60.7676 17.6963V2.69189H63.85V8.78192C64.4665 7.94344 65.6114 7.41387 66.8884 7.41387C69.2662 7.41387 70.6313 8.91431 70.6313 11.518V17.6522H67.5929V12.2682C67.5929 11.0326 66.8884 10.1941 65.8315 10.1941C64.6426 10.1941 63.85 10.9885 63.85 12.2241V17.6522H60.7676V17.6963Z" fill="#2C3DA8"></path><path d="M72.3486 14.7394C72.3486 12.9301 73.6256 11.7827 76.0035 11.6062L78.7777 11.3855V11.209C78.7777 10.2381 78.1612 9.70855 77.1044 9.70855C75.8274 9.70855 75.1228 10.194 75.1228 11.0766H72.5688C72.5688 8.82594 74.4183 7.36963 77.2365 7.36963C80.0987 7.36963 81.728 8.95833 81.728 11.8268V17.6079H79.0419L78.8217 16.284C78.5135 17.2108 77.1924 17.8727 75.6953 17.8727C73.6697 17.9168 72.3486 16.7253 72.3486 14.7394ZM78.8217 13.9451V13.4155L77.2805 13.5479C75.9595 13.6803 75.4751 13.9451 75.4751 14.6071C75.4751 15.3131 75.9154 15.6662 76.8402 15.6662C77.9851 15.6662 78.8217 15.0925 78.8217 13.9451Z" fill="#2C3DA8"></path><path d="M84.8105 17.6962V10.2823H82.917V7.72269H84.8105V4.63354H87.8489V7.72269H89.7423V10.2823H87.8489V17.6521H84.8105V17.6962Z" fill="#2C3DA8"></path><path d="M53.766 25.9927C55.1311 25.9927 56.1879 26.5222 56.7163 27.3166L56.8924 26.3016H59.7547V35.6131C59.7547 39.1877 57.7291 41.306 54.3384 41.306C51.3 41.306 49.2745 39.5849 49.0103 36.7605H52.0927C52.1367 37.8638 52.9734 38.5258 54.3384 38.5258C55.7916 38.5258 56.7163 37.6432 56.7163 36.231V34.9512C56.0998 35.6573 54.9989 36.1427 53.7219 36.1427C50.9478 36.1427 49.0103 34.1127 49.0103 31.1118C49.0103 28.1109 50.9478 25.9927 53.766 25.9927ZM54.3384 33.4949C55.7035 33.4949 56.6723 32.524 56.6723 31.0677C56.6723 29.6114 55.7475 28.6846 54.3384 28.6846C52.9734 28.6846 52.0486 29.6555 52.0486 31.0677C52.0486 32.4799 53.0174 33.4949 54.3384 33.4949Z" fill="#2C3DA8"></path><path d="M62.0444 36.2752V21.3149H65.0828V36.2752H62.0444Z" fill="#2C3DA8"></path><path d="M72.3045 26.0369C75.475 26.0369 77.7648 28.1551 77.7648 31.2884C77.7648 34.4217 75.475 36.4958 72.3045 36.4958C69.134 36.4958 66.8442 34.4217 66.8442 31.2884C66.8442 28.1551 69.134 26.0369 72.3045 26.0369ZM72.3045 33.7597C73.7136 33.7597 74.6824 32.7447 74.6824 31.2443C74.6824 29.7438 73.7136 28.773 72.3045 28.773C70.8954 28.773 69.9267 29.788 69.9267 31.2443C69.9267 32.7889 70.8954 33.7597 72.3045 33.7597Z" fill="#2C3DA8"></path><path d="M79.5261 36.2752V21.3149H82.5645V27.4932C83.181 26.6106 84.458 25.9928 85.9111 25.9928C88.6853 25.9928 90.4467 28.1552 90.4467 31.3767C90.4467 34.4659 88.4651 36.4959 85.691 36.4959C84.3259 36.4959 83.0929 35.878 82.5645 34.9513L82.3884 36.2311H79.5261V36.2752ZM85.0304 33.7156C86.4836 33.7156 87.4083 32.7006 87.4083 31.2443C87.4083 29.788 86.4836 28.773 85.0304 28.773C83.6213 28.773 82.6085 29.788 82.6085 31.2443C82.6085 32.7006 83.5773 33.7156 85.0304 33.7156Z" fill="#2C3DA8"></path><path d="M91.6797 31.2884C91.6797 28.1993 93.7493 26.0369 96.7437 26.0369C99.8701 26.0369 101.808 28.0669 101.808 31.3325V32.1269L94.63 32.171C94.8061 33.4949 95.5547 34.1128 96.8758 34.1128C98.0207 34.1128 98.8573 33.7156 99.0335 32.9654H101.808C101.455 35.1719 99.4738 36.5841 96.7877 36.5841C93.7933 36.54 91.6797 34.3334 91.6797 31.2884ZM94.63 30.2293H98.7692C98.7692 29.1701 97.9766 28.5082 96.7877 28.5082C95.5547 28.5082 94.8942 29.0377 94.63 30.2293Z" fill="#2C3DA8"></path><path d="M40.8641 47.3964L40.9081 47.4405V47.4846L40.8641 47.5288H40.82C40.6879 47.4405 40.5999 47.3964 40.4678 47.3522C40.3357 47.3081 40.2036 47.264 40.0715 47.264C39.8953 47.264 39.7632 47.3081 39.5871 47.3522C39.455 47.3964 39.3229 47.4846 39.1908 47.617C39.0587 47.7494 38.9706 47.8818 38.9266 48.0142C38.8825 48.1907 38.8385 48.3231 38.8385 48.5438C38.8385 48.7203 38.8825 48.8968 38.9266 49.0733C38.9706 49.2499 39.0587 49.3823 39.1908 49.4705C39.3229 49.6029 39.4109 49.6912 39.5871 49.7353C39.7192 49.7794 39.8953 49.8236 40.0715 49.8236C40.2036 49.8236 40.3797 49.7794 40.4678 49.7353C40.5999 49.6912 40.732 49.647 40.82 49.5588H40.8641C40.8641 49.5588 40.9081 49.5588 40.9081 49.6029V49.647C40.9081 49.647 40.9081 49.6912 40.8641 49.6912C40.82 49.7353 40.732 49.7794 40.6439 49.8236C40.5558 49.8677 40.4237 49.9118 40.3357 49.9118C40.2476 49.9559 40.1155 49.9559 40.0274 49.9559C39.8513 49.9559 39.6751 49.9118 39.499 49.8677C39.3229 49.8236 39.1908 49.6912 39.0587 49.5588C38.9266 49.4264 38.8385 49.294 38.7504 49.1175C38.6624 48.9409 38.6624 48.7644 38.6624 48.5438C38.6624 48.3231 38.7064 48.1466 38.7504 47.9701C38.7945 47.7935 38.9266 47.6612 39.0587 47.5288C39.1908 47.3964 39.3229 47.3081 39.499 47.2199C39.6751 47.1316 39.8513 47.1316 40.0274 47.1316C40.2036 47.1316 40.3357 47.1757 40.5118 47.2199C40.5999 47.264 40.732 47.3081 40.8641 47.3964Z" fill="#2C3DA8"></path><path d="M45.884 48.5438C45.884 48.7644 45.84 48.9409 45.7959 49.1175C45.7519 49.294 45.6198 49.4264 45.5317 49.5588C45.3996 49.6912 45.2675 49.7794 45.0914 49.8677C44.9153 49.956 44.7391 49.9559 44.563 49.9559C44.3868 49.9559 44.2107 49.9118 44.0346 49.8677C43.8584 49.7794 43.7263 49.6912 43.5942 49.5588C43.4621 49.4264 43.374 49.294 43.33 49.1175C43.286 48.9409 43.2419 48.7644 43.2419 48.5438C43.2419 48.3231 43.286 48.1466 43.33 47.9701C43.374 47.7935 43.5062 47.6612 43.5942 47.5288C43.6823 47.3964 43.8584 47.3081 44.0346 47.2199C44.2107 47.1316 44.3868 47.1316 44.563 47.1316C44.7391 47.1316 44.9153 47.1757 45.0914 47.2199C45.2675 47.3081 45.3996 47.3964 45.5317 47.5288C45.6638 47.6612 45.7519 47.7935 45.7959 47.9701C45.84 48.1466 45.884 48.3672 45.884 48.5438ZM45.7079 48.5438C45.7079 48.279 45.6638 48.0583 45.5758 47.8818C45.4877 47.7053 45.3556 47.5288 45.1795 47.4405C45.0033 47.3522 44.8272 47.264 44.563 47.264C44.3428 47.264 44.1226 47.3081 43.9465 47.4405C43.7704 47.5729 43.6383 47.7053 43.5502 47.8818C43.4621 48.0583 43.4181 48.279 43.4181 48.5438C43.4181 48.8086 43.4621 49.0292 43.5502 49.2057C43.6383 49.3823 43.7704 49.5588 43.9465 49.647C44.1226 49.7353 44.2988 49.8236 44.563 49.8236C44.7832 49.8236 45.0033 49.7794 45.1795 49.647C45.3556 49.5146 45.4877 49.3823 45.5758 49.2057C45.6638 49.0292 45.7079 48.8086 45.7079 48.5438Z" fill="#2C3DA8"></path><path d="M48.5261 47.1758C48.5261 47.1758 48.5701 47.1758 48.5261 47.1758C48.5701 47.1758 48.5701 47.2199 48.6141 47.2199L49.759 48.8969H49.671L50.8159 47.2199C50.8159 47.1758 50.8599 47.1758 50.9039 47.1758C50.9039 47.1758 50.948 47.1758 50.948 47.2199V47.264V49.8677C50.948 49.8677 50.948 49.9119 50.9039 49.9119C50.8599 49.9119 50.8599 49.956 50.8599 49.956C50.8159 49.956 50.8159 49.956 50.8159 49.9119L50.7718 49.8677V47.4406H50.8159L49.759 49.0734C49.759 49.0734 49.759 49.0734 49.759 49.1175C49.759 49.1617 49.759 49.1175 49.715 49.1175H49.671C49.671 49.1175 49.671 49.1175 49.6269 49.0734L48.5261 47.4406H48.5701V49.9119C48.5701 49.9119 48.5701 49.956 48.5261 49.956C48.482 49.956 48.482 50.0001 48.482 50.0001C48.438 50.0001 48.438 50.0001 48.438 49.956V49.9119V47.3082V47.264C48.482 47.1758 48.482 47.1758 48.5261 47.1758Z" fill="#2C3DA8"></path><path d="M54.735 47.1757C54.8671 47.1757 54.9992 47.2199 55.1313 47.264C55.2634 47.3081 55.3514 47.3964 55.3955 47.5288C55.4395 47.6612 55.4835 47.7935 55.4835 47.9259C55.4835 48.0583 55.4395 48.1907 55.3955 48.3231C55.3514 48.4555 55.2634 48.5438 55.1313 48.5879C54.9992 48.6762 54.8671 48.6762 54.735 48.6762H53.8543V48.632V49.8236C53.8543 49.8236 53.8543 49.8677 53.8102 49.8677L53.7662 49.9118C53.7222 49.9118 53.7222 49.9118 53.7222 49.8677V49.8236V47.2199C53.7222 47.2199 53.7222 47.1757 53.7662 47.1757C53.8102 47.1757 53.8102 47.1316 53.8102 47.1316H54.735V47.1757ZM54.735 48.5438C54.8671 48.5438 54.9551 48.4996 55.0432 48.4555C55.1313 48.4114 55.1753 48.3231 55.2634 48.2349C55.3074 48.1466 55.3514 48.0142 55.3514 47.9259C55.3514 47.7935 55.3074 47.7053 55.2634 47.617C55.2193 47.5288 55.1313 47.4405 55.0432 47.3964C54.9551 47.3522 54.8671 47.3081 54.735 47.3081H53.8543V48.5879H54.735V48.5438Z" fill="#2C3DA8"></path><path d="M58.7861 47.3964L57.7733 49.9119C57.7733 49.9119 57.7733 49.956 57.7293 49.956H57.6852C57.6412 49.956 57.6412 49.956 57.6412 49.956C57.6412 49.956 57.6412 49.9119 57.5972 49.9119V49.8677L58.654 47.2199C58.654 47.2199 58.654 47.1758 58.698 47.1758H58.7421H58.7861C58.7861 47.1758 58.8301 47.1758 58.8301 47.2199L59.887 49.8677C59.887 49.8677 59.887 49.8677 59.887 49.9119C59.887 49.956 59.887 49.956 59.8429 49.956H59.7989H59.7549C59.7549 49.956 59.7108 49.956 59.7108 49.9119L58.698 47.3523L58.7861 47.3964ZM58.0375 49.0734L58.0815 48.8969H59.3585L59.4026 49.0734H58.0375Z" fill="#2C3DA8"></path><path d="M64.4665 47.1757C64.5105 47.1757 64.5105 47.1757 64.5105 47.1757V47.2198V49.8235C64.5105 49.8676 64.5105 49.8676 64.4665 49.8676H64.4225C64.4225 49.8676 64.4225 49.8676 64.3784 49.8676C64.3784 49.8676 64.3784 49.8676 64.3344 49.8235L62.4849 47.3081L62.529 47.2639V49.7794V49.8235H62.4849C62.4409 49.8235 62.4409 49.8235 62.4409 49.8235V49.7794V47.1315C62.4409 47.0874 62.4409 47.0874 62.4849 47.0874H62.529C62.529 47.0874 62.529 47.0874 62.573 47.0874C62.573 47.0874 62.573 47.0874 62.6171 47.0874L64.4665 49.6028L64.4225 49.6911V47.1757C64.4225 47.1757 64.4225 47.1315 64.4665 47.1315C64.4225 47.1757 64.4225 47.1757 64.4665 47.1757Z" fill="#2C3DA8"></path><path d="M68.914 47.1758C68.958 47.1758 68.958 47.1758 68.958 47.2199V47.264C68.958 47.264 68.958 47.264 68.958 47.3082C68.958 47.3082 68.958 47.3082 68.958 47.3523L68.0333 48.6321L68.0773 48.4997V49.9119C68.0773 49.9119 68.0773 49.956 68.0333 49.956C67.9893 49.956 67.9893 50.0001 67.9893 50.0001C67.9452 50.0001 67.9452 50.0001 67.9452 49.956V49.9119V48.4997V48.588L67.0205 47.3082C67.0205 47.3082 67.0205 47.3082 67.0205 47.264C67.0205 47.264 67.0205 47.264 67.0205 47.2199C67.0205 47.2199 67.0205 47.1758 67.0645 47.1758H67.1086C67.1526 47.1758 67.1526 47.1758 67.1966 47.2199L68.0773 48.4114H68.0333L68.914 47.2199C68.87 47.1758 68.87 47.1758 68.914 47.1758Z" fill="#2C3DA8"></path><path d="M75.2109 50C74.9908 50 74.8146 49.9558 74.6825 49.9117C74.5504 49.8234 74.3743 49.7352 74.2422 49.6028C74.2422 49.6028 74.2422 49.6028 74.2422 49.5587C74.2422 49.5587 74.2422 49.5145 74.2862 49.5145C74.3303 49.5145 74.3303 49.4704 74.3303 49.4704C74.3743 49.4704 74.3743 49.4704 74.4183 49.5145C74.5064 49.6469 74.6385 49.7352 74.7706 49.7793C74.9027 49.8234 75.0788 49.8676 75.2109 49.8676C75.343 49.8676 75.4752 49.8676 75.5632 49.8234C75.6513 49.7793 75.7394 49.7352 75.8274 49.6469C75.8715 49.5586 75.9155 49.4704 75.9155 49.3821C75.9155 49.2497 75.8715 49.1173 75.7834 49.0732C75.6953 48.985 75.6073 48.9408 75.5192 48.8526C75.3871 48.8084 75.299 48.7643 75.1669 48.7202C75.0788 48.676 74.9908 48.6319 74.8587 48.5878C74.7706 48.5436 74.6825 48.4995 74.5945 48.4554C74.5064 48.4113 74.4624 48.323 74.4183 48.2347C74.3743 48.1465 74.3303 48.0582 74.3303 47.9258C74.3303 47.7934 74.3743 47.661 74.4183 47.5728C74.5064 47.4845 74.5945 47.3962 74.7266 47.308C74.8587 47.2639 74.9908 47.2197 75.2109 47.2197C75.343 47.2197 75.5192 47.2639 75.6513 47.308C75.7834 47.3521 75.9155 47.4404 76.0036 47.5728C76.0476 47.6169 76.0476 47.6169 76.0476 47.661C76.0476 47.7052 76.0476 47.7052 76.0036 47.7052C75.9595 47.7052 75.9595 47.7493 75.9595 47.7493C75.9595 47.7493 75.9155 47.7493 75.9155 47.7052C75.8715 47.661 75.8274 47.5728 75.7394 47.5286C75.6513 47.4845 75.6073 47.4404 75.5192 47.4404C75.4311 47.3962 75.343 47.3962 75.255 47.3962C75.1229 47.3962 74.9908 47.3962 74.9027 47.4404C74.8146 47.4845 74.7266 47.5286 74.6385 47.6169C74.5504 47.7052 74.5504 47.7934 74.5504 47.9258C74.5504 48.0582 74.5945 48.1465 74.6385 48.2347C74.7266 48.323 74.8146 48.3671 74.9027 48.4113C74.9908 48.4554 75.1229 48.4995 75.255 48.5436C75.343 48.5878 75.4752 48.6319 75.5632 48.676C75.6513 48.7202 75.7394 48.7643 75.8274 48.8084C75.9155 48.8526 75.9595 48.9408 76.0036 49.0291C76.0476 49.1173 76.0916 49.2497 76.0916 49.3821C76.0916 49.5145 76.0476 49.6028 76.0036 49.7352C75.9155 49.8234 75.8274 49.9117 75.6953 50C75.5632 49.9558 75.3871 50 75.2109 50Z" fill="#2C3DA8"></path><path d="M80.1869 49.7794C80.1869 49.7794 80.2309 49.7794 80.2309 49.8236L80.2749 49.8677C80.2749 49.9118 80.2749 49.9118 80.2309 49.9118H80.1869H78.7337C78.6897 49.9118 78.6897 49.9118 78.6897 49.8677V49.8236V47.2199C78.6897 47.2199 78.6897 47.1757 78.7337 47.1757C78.7778 47.1757 78.7778 47.1316 78.7778 47.1316C78.8218 47.1316 78.8218 47.1316 78.8218 47.1757L78.8658 47.2199V49.8236L78.7778 49.7353H80.1869V49.7794Z" fill="#2C3DA8"></path><path d="M85.1189 48.5438C85.1189 48.7644 85.0748 48.9409 85.0308 49.1175C84.9868 49.294 84.8547 49.4264 84.7666 49.5588C84.6345 49.6912 84.5024 49.7794 84.3263 49.8677C84.1501 49.956 83.974 49.9559 83.7978 49.9559C83.6217 49.9559 83.4456 49.9118 83.2694 49.8677C83.0933 49.7794 82.9612 49.6912 82.8291 49.5588C82.697 49.4264 82.6089 49.294 82.5649 49.1175C82.5208 48.9409 82.4768 48.7644 82.4768 48.5438C82.4768 48.3231 82.5208 48.1466 82.5649 47.9701C82.6089 47.7935 82.741 47.6612 82.8291 47.5288C82.9172 47.3964 83.0933 47.3081 83.2694 47.2199C83.4456 47.1316 83.6217 47.1316 83.7978 47.1316C83.974 47.1316 84.1501 47.1757 84.3263 47.2199C84.5024 47.3081 84.6345 47.3964 84.7666 47.5288C84.8987 47.6612 84.9868 47.7935 85.0308 47.9701C85.0748 48.1466 85.1189 48.3672 85.1189 48.5438ZM84.9427 48.5438C84.9427 48.279 84.8987 48.0583 84.8106 47.8818C84.7226 47.7053 84.5905 47.5288 84.4143 47.4405C84.2382 47.3522 84.062 47.264 83.7978 47.264C83.5777 47.264 83.3575 47.3081 83.1814 47.4405C83.0052 47.5729 82.8731 47.7053 82.785 47.8818C82.697 48.0583 82.6529 48.279 82.6529 48.5438C82.6529 48.8086 82.697 49.0292 82.785 49.2057C82.8731 49.3823 83.0052 49.5588 83.1814 49.647C83.3575 49.7353 83.5336 49.8236 83.7978 49.8236C84.018 49.8236 84.2382 49.7794 84.4143 49.647C84.5905 49.5146 84.7226 49.3823 84.8106 49.2057C84.8987 49.0292 84.9427 48.8086 84.9427 48.5438Z" fill="#2C3DA8"></path><path d="M88.9057 50.0001C88.6855 50.0001 88.5094 49.956 88.3332 49.9119C88.1571 49.8236 88.025 49.7354 87.8929 49.603C87.7608 49.4706 87.6727 49.3382 87.5846 49.1617C87.4966 48.9851 87.4966 48.8086 87.4966 48.588C87.4966 48.3673 87.5406 48.1908 87.5846 48.0143C87.6727 47.8377 87.7608 47.7053 87.8929 47.573C88.025 47.4406 88.1571 47.3523 88.3332 47.264C88.5094 47.1758 88.6855 47.1758 88.9057 47.1758C89.0378 47.1758 89.1699 47.1758 89.346 47.2199C89.4781 47.264 89.6102 47.3082 89.6983 47.3964C89.6983 47.3964 89.7423 47.3964 89.7423 47.4406V47.4847C89.7423 47.5288 89.7423 47.5288 89.6983 47.5288H89.6543C89.6543 47.5288 89.6543 47.5288 89.6102 47.5288C89.6102 47.5288 89.6102 47.5288 89.5662 47.5288C89.4781 47.4847 89.346 47.4406 89.258 47.3964C89.1259 47.3523 89.0378 47.3523 88.9057 47.3523C88.6415 47.3523 88.4213 47.3964 88.2452 47.5288C88.069 47.6171 87.8929 47.7936 87.8048 47.9701C87.7168 48.1467 87.6287 48.3673 87.6287 48.6321C87.6287 48.8969 87.6727 49.1175 87.8048 49.294C87.8929 49.4706 88.069 49.6471 88.2452 49.7354C88.4213 49.8236 88.6415 49.9119 88.9057 49.9119C89.0378 49.9119 89.1699 49.9119 89.302 49.8677C89.4341 49.8236 89.5222 49.7795 89.6543 49.6912V49.7795V48.7645L89.6983 48.8086H88.9497C88.9497 48.8086 88.9057 48.8086 88.9057 48.7645L88.8617 48.7204C88.8617 48.6762 88.8617 48.6762 88.9057 48.6762H88.9497H89.7423C89.7864 48.6762 89.7864 48.6762 89.7864 48.7204V48.7645V49.7795V49.8236C89.7864 49.8236 89.7864 49.8677 89.7423 49.8677C89.6102 49.956 89.4781 50.0001 89.346 50.0443C89.2139 49.956 89.0818 50.0001 88.9057 50.0001Z" fill="#2C3DA8"></path><path d="M93.3093 47.3964L92.2965 49.9119C92.2965 49.9119 92.2965 49.956 92.2525 49.956H92.2084C92.1644 49.956 92.1644 49.956 92.1644 49.956C92.1644 49.956 92.1644 49.9119 92.1204 49.9119V49.8677L93.1772 47.2199C93.1772 47.2199 93.1772 47.1758 93.2212 47.1758H93.2653H93.3093C93.3093 47.1758 93.3533 47.1758 93.3533 47.2199L94.4102 49.8677C94.4102 49.8677 94.4102 49.8677 94.4102 49.9119C94.4102 49.956 94.4102 49.956 94.3661 49.956H94.3221H94.2781C94.2781 49.956 94.234 49.956 94.234 49.9119L93.2212 47.3523L93.3093 47.3964ZM92.6047 49.0734L92.6488 48.8969H93.9258L93.9698 49.0734H92.6047Z" fill="#2C3DA8"></path><path d="M98.9897 47.1757C99.0337 47.1757 99.0337 47.1757 99.0337 47.1757V47.2198V49.8235C99.0337 49.8676 99.0337 49.8676 98.9897 49.8676H98.9457C98.9457 49.8676 98.9457 49.8676 98.9016 49.8676C98.9016 49.8676 98.9016 49.8676 98.8576 49.8235L97.0081 47.3081L97.0522 47.2639V49.7794V49.8235H97.0081C96.9641 49.8235 96.9641 49.8235 96.9641 49.8235V49.7794V47.1315C96.9641 47.0874 96.9641 47.0874 97.0081 47.0874H97.0522C97.0522 47.0874 97.0522 47.0874 97.0962 47.0874C97.0962 47.0874 97.0962 47.0874 97.1403 47.0874L98.9897 49.6028L98.9457 49.6911V47.1757C98.9457 47.1757 98.9457 47.1315 98.9897 47.1315C98.9457 47.1757 98.9897 47.1757 98.9897 47.1757Z" fill="#2C3DA8"></path></g><defs><clipPath id="clip0_284_447"><rect width="101.852" height="50" fill="white"></rect></clipPath></defs></svg>