<svg xmlns="http://www.w3.org/2000/svg" width="121" height="50" viewBox="0 0 121 50" fill="none"><path d="M31.5515 43.5045C27.212 44.9561 25.7274 45.3784 21.0013 45.4488C20.0438 45.4488 19.2093 45.4136 18.1727 45.2729L17.6193 45.1849C16.9429 45.0617 16.1259 44.8682 15.4583 44.6834C7.73669 42.5719 1.62266 35.7976 0.313766 27.9148C-1.18839 19.6449 2.79979 10.7767 10.2051 6.80011C19.587 1.45105 32.7638 5.93792 34.5295 16.8912C30.3568 12.1404 23.2062 10.372 18.0058 14.0143C12.2431 17.9997 12.6912 26.7799 19.5607 28.9617L19.7978 29.0321C19.8769 29.0497 19.9647 29.0673 20.0438 29.0849L20.4215 29.1553C20.4655 29.1641 20.5621 29.1817 20.729 29.1817C20.7993 29.1905 21.2034 29.1905 21.3263 29.1905C24.4624 29.0937 24.5766 29.1465 27.8093 28.645L31.5515 43.5045Z" fill="#ED7F22"></path><path d="M9.59011 24.0878C10.7497 33.2463 19.3849 34.9707 29.1708 34.0469L27.8092 28.6538C24.5765 29.1553 24.4623 29.1025 21.3262 29.1993C21.2033 29.2081 20.808 29.1993 20.7289 29.1905C20.5532 29.1817 20.4566 29.1641 20.4214 29.1641L20.0437 29.0937C19.9646 29.0761 19.8856 29.0497 19.7977 29.0409L19.5605 28.9706C12.691 26.7887 12.243 18.0173 18.0057 14.0231C23.2061 10.3808 30.3567 12.1492 34.5294 16.9C23.1534 1.78539 8.16702 12.8794 9.59011 24.0878Z" fill="#DB5621"></path><path d="M10.2051 6.80039C2.79979 10.777 -1.18839 19.6452 0.313766 27.9151C1.62266 35.7979 7.74547 42.5722 15.4583 44.6925C16.1259 44.8772 16.9429 45.0708 17.6193 45.194L18.1727 45.2819C19.2181 45.4227 20.0438 45.4579 21.0013 45.4579C25.7274 45.3787 27.212 44.9652 31.5515 43.5136L30.3744 38.8332C20.158 42.0443 7.1657 38.4812 4.88172 26.5602C3.62553 19.9707 6.4805 12.1143 13.2709 8.72711C19.8945 5.41914 29.944 6.09657 34.5295 16.9003C32.7638 5.93821 19.587 1.45133 10.2051 6.80039Z" fill="#FAA140"></path><path d="M41.3376 33.4574L31.5517 43.5045C27.5723 42.2728 30.3746 38.8241 30.3746 38.8241C26.2985 38.4458 27.4844 34.6451 29.1711 34.0469C25.4025 33.3078 26.4127 29.56 27.8095 28.6538L41.3376 33.4574Z" fill="#FDCAB0"></path><path d="M37.4986 32.0938L27.818 28.645C26.4213 29.56 25.4111 33.2991 29.1796 34.0381L37.9466 33.1055L37.4986 32.0938Z" fill="#E2AD96"></path><path d="M37.1472 35.6831L30.3743 38.8151C30.3743 38.8151 27.5721 42.2639 31.5514 43.4955L37.8412 37.038L37.1472 35.6831Z" fill="#FFD5C2"></path><path d="M36.998 37.9089L35.9175 31.5305L41.3375 33.4572L36.998 37.9089Z" fill="#ED7F22"></path><path d="M49.2745 27.6079C44.7642 27.6079 42.5198 24.6287 42.5198 20.0471C42.5198 15.3149 44.893 12.4648 49.5322 12.4648C51.3256 12.4648 52.7646 12.895 53.8707 13.8092C54.9016 14.7341 55.4922 16.014 55.6426 17.6165H53.8277C53.1834 17.6165 52.7001 17.3154 52.4209 16.7346C51.9269 15.6806 50.9497 15.1321 49.5322 15.1321C46.7509 15.1321 45.5159 17.1002 45.5159 20.0579C45.5159 22.9295 46.7079 24.9622 49.4463 24.9622C51.3256 24.9622 52.3995 23.9297 52.7216 22.3057H55.6318C55.3634 25.6827 52.9901 27.6079 49.2745 27.6079Z" fill="black"></path><path d="M57.0923 21.4883C57.1782 17.7886 59.1434 15.9602 62.9664 15.9602H63.3745V18.9393H62.408C60.8079 18.9393 60.0132 19.7782 60.0132 21.4453V27.3928H57.103V21.4883H57.0923Z" fill="black"></path><path d="M69.7962 27.6509C66.3383 27.5433 64.6201 25.5321 64.6201 21.6388C64.6201 17.7455 66.3705 15.7989 69.8392 15.7773C73.4689 15.7773 75.1656 18.0036 74.9508 22.4777H67.5733C67.6807 24.2308 68.4324 25.1127 69.8392 25.1127C70.505 25.1127 71.1386 24.8331 71.697 24.2953C71.9547 24.0157 72.2769 23.8866 72.6635 23.8866H74.779C74.1562 26.3172 72.6098 27.6509 69.7962 27.6509ZM67.6162 20.4343H71.9117C71.7399 18.9178 71.0312 18.1434 69.7962 18.1434C68.572 18.1434 67.8417 18.9178 67.6162 20.4343Z" fill="black"></path><path d="M79.257 18.9393H76.3898C76.7334 16.8206 78.2261 15.7881 80.8571 15.7881C84.0036 15.7881 85.6037 16.8206 85.6681 18.9393V22.8326C85.6681 25.9838 83.7673 27.3927 80.6853 27.6078C77.9469 27.8229 76.0461 26.5538 76.0461 24.0157C76.1106 21.2731 78.0972 20.531 80.986 20.2514C82.2209 20.1008 82.8438 19.7352 82.8438 19.1006C82.7794 18.4553 82.178 18.1327 80.986 18.1327C79.9658 18.1434 79.4074 18.4016 79.257 18.9393ZM82.876 22.7036V21.6496C82.2102 21.9292 81.4263 22.1658 80.5886 22.3379C79.4396 22.553 78.8597 23.0907 78.8597 23.9404C78.9241 24.8438 79.3966 25.2848 80.3094 25.2848C81.9095 25.274 82.876 24.3276 82.876 22.7036Z" fill="black"></path><path d="M90.651 18.0144H90.3503V24.3491C90.3503 24.8223 90.6295 25.0804 91.1879 25.0804H92.0685V27.2637C91.145 27.3497 90.1248 27.3497 89.0509 27.2422C87.977 27.1346 87.4508 26.4678 87.4723 25.188V12.6907H88.965C89.7167 12.6907 90.3503 13.379 90.3503 14.1426V15.9602H92.0685V16.584C92.0685 17.4121 91.4457 18.0144 90.651 18.0144Z" fill="black"></path><path d="M95.2044 12.6907C96.1494 12.6907 96.6111 13.1639 96.5897 14.0996V14.9385H93.7224V12.6907H95.2044ZM95.2044 15.9602C96.1279 15.9602 96.5897 16.4119 96.5897 17.3476V27.4035H93.7224V15.9602H95.2044Z" fill="black"></path><path d="M109.079 15.9602L105.041 27.3928H102.002L97.9856 15.9602H101.154L103.462 23.9834L105.449 16.9819C105.664 16.3151 106.136 15.971 106.856 15.971H109.079V15.9602Z" fill="black"></path><path d="M114.824 27.6509C111.366 27.5433 109.648 25.5321 109.648 21.6388C109.648 17.7455 111.398 15.7989 114.867 15.7773C118.497 15.7773 120.193 18.0036 119.979 22.4777H112.601C112.709 24.2308 113.46 25.1127 114.867 25.1127C115.533 25.1127 116.166 24.8331 116.725 24.2953C116.983 24.0157 117.305 23.8866 117.691 23.8866H119.807C119.184 26.3172 117.627 27.6509 114.824 27.6509ZM112.644 20.4343H116.94C116.768 18.9178 116.059 18.1434 114.824 18.1434C113.589 18.1434 112.859 18.9178 112.644 20.4343Z" fill="black"></path><path d="M55.4277 36.0398V30.9312H57.35C57.6936 30.9312 57.9514 30.9527 58.1232 30.9849C58.3702 31.0279 58.5849 31.1032 58.7568 31.2215C58.9286 31.3398 59.0574 31.5012 59.1648 31.7163C59.2722 31.9314 59.3152 32.1572 59.3152 32.4153C59.3152 32.8455 59.1756 33.222 58.8964 33.5231C58.6172 33.8242 58.1232 33.9748 57.4037 33.9748H56.0935V36.0505H55.4277V36.0398ZM56.1043 33.3618H57.4252C57.8654 33.3618 58.1661 33.2757 58.3594 33.1144C58.542 32.9531 58.6386 32.7272 58.6386 32.4261C58.6386 32.211 58.5849 32.0282 58.4776 31.8776C58.3702 31.727 58.2306 31.6195 58.048 31.5765C57.9299 31.5442 57.7258 31.5334 57.4144 31.5334H56.1043V33.3618Z" fill="#617085"></path><path d="M60.0991 36.0397V32.3399H60.6683V32.8992C60.8079 32.6411 60.9475 32.4583 61.0656 32.383C61.1837 32.2969 61.3233 32.2539 61.4629 32.2539C61.6777 32.2539 61.8925 32.3184 62.1073 32.4583L61.8925 33.039C61.7422 32.953 61.5811 32.8992 61.4307 32.8992C61.2911 32.8992 61.173 32.9422 61.0656 33.0283C60.9582 33.1143 60.8831 33.2219 60.8294 33.3724C60.7649 33.5983 60.722 33.8349 60.722 34.1038V36.0397H60.0991Z" fill="#617085"></path><path d="M65.0067 34.8459L65.651 34.9212C65.5436 35.2976 65.3611 35.5987 65.0819 35.8031C64.8027 36.0074 64.4483 36.115 64.0187 36.115C63.4818 36.115 63.0522 35.9429 62.7301 35.6095C62.4079 35.2761 62.2576 34.8029 62.2576 34.2006C62.2576 33.5768 62.4187 33.0928 62.7408 32.7487C63.063 32.4045 63.4818 32.2324 63.9865 32.2324C64.4805 32.2324 64.8886 32.4045 65.2 32.7379C65.5114 33.0713 65.6725 33.5445 65.6725 34.1576C65.6725 34.1898 65.6725 34.2544 65.6725 34.3296H62.9126C62.9341 34.7383 63.0522 35.0502 63.2563 35.2653C63.4603 35.4804 63.718 35.588 64.0295 35.588C64.255 35.588 64.459 35.5235 64.6201 35.4051C64.7812 35.3084 64.91 35.1148 65.0067 34.8459ZM62.9448 33.8349H65.0067C64.9745 33.523 64.8993 33.2864 64.7704 33.1358C64.5664 32.8992 64.3087 32.7702 63.9972 32.7702C63.7073 32.7702 63.471 32.867 63.267 33.0606C63.0737 33.2541 62.9663 33.5123 62.9448 33.8349Z" fill="#617085"></path><path d="M66.4458 36.0397V32.3399H67.0042V32.8562C67.1223 32.6734 67.2727 32.5335 67.466 32.4152C67.6593 32.3077 67.8741 32.2539 68.121 32.2539C68.4003 32.2539 68.615 32.3077 68.7976 32.426C68.9694 32.5443 69.0983 32.6949 69.1734 32.8992C69.4634 32.469 69.85 32.2539 70.3118 32.2539C70.6769 32.2539 70.9561 32.3507 71.1601 32.555C71.3534 32.7594 71.4608 33.0713 71.4608 33.4907V36.0289H70.838V33.6951C70.838 33.4477 70.8165 33.2649 70.7735 33.1573C70.7306 33.0498 70.6554 32.953 70.548 32.8885C70.4406 32.8239 70.3118 32.7917 70.1722 32.7917C69.9144 32.7917 69.6996 32.8777 69.5278 33.0498C69.356 33.2219 69.2701 33.5015 69.2701 33.8779V36.0289H68.6473V33.6198C68.6473 33.3402 68.5936 33.1358 68.4969 32.996C68.3895 32.8562 68.2284 32.7917 67.9922 32.7917C67.8204 32.7917 67.6485 32.8347 67.4982 32.9315C67.3479 33.0283 67.2405 33.1573 67.176 33.3402C67.1116 33.523 67.0794 33.7811 67.0794 34.1145V36.0397H66.4458Z" fill="#617085"></path><path d="M72.3843 31.6517V30.9312H73.0071V31.6517H72.3843ZM72.3843 36.0398V32.3401H73.0071V36.0398H72.3843Z" fill="#617085"></path><path d="M76.3899 36.0398V35.4913C76.0999 35.9107 75.7133 36.1151 75.2193 36.1151C75.0045 36.1151 74.8005 36.0721 74.6072 35.986C74.4139 35.9 74.2743 35.7924 74.1884 35.6741C74.0918 35.5451 74.0273 35.3945 73.9951 35.2117C73.9736 35.0934 73.9521 34.889 73.9521 34.6309V32.3401H74.575V34.3943C74.575 34.7169 74.5857 34.9428 74.618 35.0611C74.6609 35.2224 74.7361 35.3515 74.8649 35.4483C74.9938 35.5451 75.1549 35.5881 75.3375 35.5881C75.5308 35.5881 75.7026 35.5451 75.8637 35.4483C76.0247 35.3515 76.1429 35.2224 76.218 35.0503C76.2825 34.889 76.3254 34.6417 76.3254 34.3298V32.3508H76.9483V36.0506H76.3899V36.0398Z" fill="#617085"></path><path d="M77.9363 36.0397V32.3399H78.4947V32.8562C78.6128 32.6734 78.7632 32.5335 78.9565 32.4152C79.1498 32.3077 79.3645 32.2539 79.6115 32.2539C79.8907 32.2539 80.1055 32.3077 80.2881 32.426C80.4599 32.5443 80.5888 32.6949 80.6639 32.8992C80.9539 32.469 81.3405 32.2539 81.8022 32.2539C82.1674 32.2539 82.4466 32.3507 82.6506 32.555C82.8439 32.7594 82.9513 33.0713 82.9513 33.4907V36.0289H82.3284V33.6951C82.3284 33.4477 82.307 33.2649 82.264 33.1573C82.2211 33.0498 82.1459 32.953 82.0385 32.8885C81.9311 32.8239 81.8022 32.7917 81.6626 32.7917C81.4049 32.7917 81.1901 32.8777 81.0183 33.0498C80.8465 33.2219 80.7606 33.5015 80.7606 33.8779V36.0289H80.1377V33.6198C80.1377 33.3402 80.084 33.1358 79.9874 32.996C79.88 32.8562 79.7189 32.7917 79.4827 32.7917C79.3108 32.7917 79.139 32.8347 78.9887 32.9315C78.8383 33.0283 78.7309 33.1573 78.6665 33.3402C78.6021 33.523 78.5699 33.7811 78.5699 34.1145V36.0397H77.9363Z" fill="#617085"></path><path d="M85.9365 36.0398V30.9312H87.6977C88.095 30.9312 88.3957 30.9527 88.6105 31.0064C88.9004 31.071 89.1474 31.2 89.3622 31.3721C89.6307 31.598 89.8347 31.8883 89.9636 32.2433C90.0924 32.5982 90.1676 33.0069 90.1676 33.4586C90.1676 33.8458 90.1246 34.1899 90.028 34.4911C89.9421 34.7922 89.824 35.0396 89.6844 35.2332C89.5448 35.4267 89.3837 35.5881 89.2226 35.6956C89.0508 35.8032 88.8467 35.8892 88.6105 35.9537C88.3742 36.0075 88.095 36.0398 87.7943 36.0398H85.9365ZM86.6131 35.4375H87.6977C88.0306 35.4375 88.2991 35.4052 88.4924 35.3407C88.6857 35.2762 88.836 35.1901 88.9541 35.0718C89.1152 34.9105 89.2441 34.6954 89.33 34.4265C89.4159 34.1577 89.4588 33.8242 89.4588 33.4371C89.4588 32.8993 89.3729 32.4906 89.2011 32.2002C89.0293 31.9099 88.8145 31.7163 88.5568 31.6195C88.3742 31.5549 88.0843 31.5119 87.6869 31.5119H86.6131V35.4375Z" fill="#617085"></path><path d="M93.5397 34.8459L94.184 34.9212C94.0766 35.2976 93.894 35.5987 93.6148 35.8031C93.3356 36.0074 92.9812 36.115 92.5517 36.115C92.0148 36.115 91.5852 35.9429 91.263 35.6095C90.9516 35.2761 90.7905 34.8029 90.7905 34.2006C90.7905 33.5768 90.9516 33.0928 91.2738 32.7487C91.5959 32.4045 92.0148 32.2324 92.5195 32.2324C93.0135 32.2324 93.4215 32.4045 93.733 32.7379C94.0444 33.0713 94.2055 33.5445 94.2055 34.1576C94.2055 34.1898 94.2055 34.2544 94.2055 34.3296H91.4456C91.4671 34.7383 91.5852 35.0502 91.7892 35.2653C91.9933 35.4804 92.251 35.588 92.5624 35.588C92.7879 35.588 92.992 35.5235 93.1531 35.4051C93.3141 35.3084 93.443 35.1148 93.5397 34.8459ZM91.4778 33.8349H93.5397C93.5074 33.523 93.4323 33.2864 93.3034 33.1358C93.0994 32.8992 92.8416 32.7702 92.5302 32.7702C92.2403 32.7702 92.004 32.867 91.8 33.0606C91.6067 33.2541 91.4993 33.5123 91.4778 33.8349Z" fill="#617085"></path><path d="M94.7209 34.9319L95.3438 34.8351C95.376 35.0825 95.4727 35.2761 95.6337 35.4051C95.7948 35.5342 96.0203 35.5987 96.2995 35.5987C96.5895 35.5987 96.8043 35.5449 96.9439 35.4266C97.0835 35.3083 97.1479 35.1685 97.1479 35.018C97.1479 34.8781 97.0835 34.7598 96.9653 34.6846C96.8794 34.6308 96.6647 34.5555 96.321 34.4695C95.8593 34.3511 95.5478 34.2544 95.3653 34.1683C95.1827 34.0823 95.0539 33.964 94.9572 33.8134C94.8606 33.6628 94.8176 33.5015 94.8176 33.3187C94.8176 33.1573 94.8606 32.996 94.9357 32.8562C95.0109 32.7164 95.1183 32.5981 95.2471 32.5013C95.3438 32.426 95.4727 32.3722 95.6445 32.3185C95.8163 32.2647 95.9881 32.2432 96.1814 32.2432C96.4714 32.2432 96.7291 32.2862 96.9439 32.3722C97.1587 32.4583 97.3197 32.5658 97.4271 32.7164C97.5345 32.8562 97.5989 33.0498 97.6419 33.2864L97.0298 33.3724C96.9976 33.1788 96.9224 33.0283 96.7828 32.9207C96.6539 32.8132 96.4606 32.7594 96.2136 32.7594C95.9237 32.7594 95.7197 32.8024 95.6015 32.8992C95.4834 32.996 95.419 33.1036 95.419 33.2326C95.419 33.3187 95.4404 33.3832 95.4941 33.4477C95.5478 33.5123 95.623 33.566 95.7304 33.6198C95.7948 33.6413 95.9774 33.6951 96.2888 33.7811C96.7291 33.8994 97.0405 33.9962 97.2123 34.0715C97.3842 34.1468 97.5238 34.2543 97.6204 34.4049C97.7171 34.5447 97.7708 34.7276 97.7708 34.9427C97.7708 35.147 97.7063 35.3514 97.5882 35.5342C97.4701 35.717 97.2875 35.8568 97.062 35.9644C96.8365 36.0612 96.568 36.115 96.2781 36.115C95.7948 36.115 95.4297 36.0182 95.1827 35.8138C94.9465 35.6202 94.7961 35.3298 94.7209 34.9319Z" fill="#617085"></path><path d="M98.5439 31.6517V30.9312H99.1668V31.6517H98.5439ZM98.5439 36.0398V32.3401H99.1668V36.0398H98.5439Z" fill="#617085"></path><path d="M100.004 36.3408L100.616 36.4269C100.638 36.6205 100.713 36.7495 100.831 36.8356C100.982 36.9539 101.196 37.0076 101.465 37.0076C101.755 37.0076 101.98 36.9539 102.141 36.8356C102.302 36.7172 102.41 36.5559 102.464 36.3516C102.496 36.2225 102.506 35.9536 102.506 35.545C102.227 35.8676 101.894 36.0289 101.486 36.0289C100.982 36.0289 100.584 35.8461 100.305 35.4804C100.026 35.1147 99.8862 34.6738 99.8862 34.1576C99.8862 33.8026 99.9507 33.48 100.08 33.1789C100.208 32.8777 100.391 32.6519 100.638 32.4905C100.885 32.3292 101.164 32.2432 101.497 32.2432C101.937 32.2432 102.292 32.4152 102.582 32.7702V32.3185H103.162V35.5234C103.162 36.1042 103.108 36.5129 102.99 36.7495C102.872 36.9861 102.689 37.1797 102.431 37.3195C102.174 37.4593 101.862 37.5239 101.497 37.5239C101.057 37.5239 100.702 37.4271 100.423 37.2227C100.133 37.0399 99.9936 36.7495 100.004 36.3408ZM100.531 34.1253C100.531 34.6093 100.627 34.9642 100.821 35.19C101.014 35.4159 101.25 35.5234 101.54 35.5234C101.83 35.5234 102.066 35.4159 102.26 35.19C102.453 34.9642 102.549 34.62 102.549 34.1468C102.549 33.6951 102.453 33.3509 102.249 33.1251C102.045 32.8992 101.808 32.7809 101.519 32.7809C101.239 32.7809 101.003 32.8992 100.81 33.1251C100.627 33.3402 100.531 33.6736 100.531 34.1253Z" fill="#617085"></path><path d="M104.085 36.0397V32.3399H104.654V32.8669C104.923 32.4583 105.32 32.2539 105.836 32.2539C106.061 32.2539 106.265 32.2969 106.448 32.3722C106.63 32.4475 106.77 32.555 106.867 32.6841C106.963 32.8132 107.028 32.9637 107.06 33.1466C107.081 33.2649 107.092 33.4692 107.092 33.7596V36.0397H106.469V33.7919C106.469 33.5338 106.448 33.3402 106.394 33.2219C106.34 33.0928 106.254 32.996 106.136 32.9207C106.007 32.8454 105.868 32.8024 105.696 32.8024C105.428 32.8024 105.202 32.8885 105.009 33.0605C104.815 33.2326 104.719 33.5553 104.719 34.0285V36.0504H104.085V36.0397Z" fill="#617085"></path></svg>