<svg xmlns="http://www.w3.org/2000/svg" width="113" height="52" viewBox="0 0 113 52" fill="none"><g clip-path="url(#clip0_284_392)"><path d="M1.55985 27.7922C3.78806 33.1656 12.3876 37.0354 20.5623 38.7407C15.1241 36.2698 10.1594 33.3604 9.44215 28.3839C8.62746 22.76 12.1996 17.9435 16.4471 22.5512C16.4471 22.5512 17.6935 21.013 16.9902 19.2172C16.5167 18.0061 15.5767 17.6303 15.5767 17.6303C15.5767 17.6303 16.0571 15.758 14.8038 14.4912C13.5434 13.2175 12.2901 13.0017 10.41 12.2431C8.52997 11.4774 7.03986 10.51 6.71259 9.5564C6.30873 9.81393 4.8395 12.7094 6.44799 14.2754C6.43406 14.2685 -2.80605 17.2614 1.55985 27.7922Z" fill="white"></path><path d="M9.10785 14.1572C9.10785 14.1572 7.76396 14.4565 6.43399 14.2686C4.83247 12.7026 6.29473 9.80709 6.69859 9.54956C6.69859 9.54956 5.52182 13.4682 9.10785 14.1572Z" fill="url(#paint0_linear_284_392)"></path><path d="M11.7817 18.5839C14.1631 18.6743 16.8022 20.5954 16.4401 22.5512C12.1926 17.9505 8.62048 22.767 9.43517 28.3839C9.86688 31.3559 11.8026 33.5832 14.4556 35.4277L13.9751 36.2768C6.54546 32.4139 6.69168 25.5232 7.94505 22.231C6.05803 24.2773 5.73077 27.8897 5.73077 27.8897C4.21976 20.8042 8.89204 18.4725 11.7817 18.5839Z" fill="url(#paint1_linear_284_392)"></path><path d="M12.6311 13.2732C12.7982 13.3428 12.9584 13.4194 13.1046 13.4959C14.8384 14.4147 15.4721 15.6049 15.291 17.867C15.3537 17.9087 15.4164 17.9574 15.4721 18.0062C16.0222 17.5468 16.5862 17.0735 17.1502 16.5723C25.4433 8.88823 18.884 1.51733 18.884 1.51733C18.6821 5.81181 15.6531 9.5425 12.6311 13.2732Z" fill="url(#paint2_linear_284_392)"></path><path d="M14.8037 14.9854C14.4417 14.3799 13.8846 13.9135 13.0978 13.4959C12.9515 13.4194 12.7983 13.3428 12.6243 13.2732C15.6463 9.5425 18.6752 5.81181 18.8702 1.51734C18.8772 1.51038 23.2849 7.92773 14.8037 14.9854Z" fill="url(#paint3_linear_284_392)"></path><path d="M12.8958 20.2125C14.1631 20.0524 15.4722 20.5674 16.5027 22.0361C17.0041 20.7206 16.8091 19.078 15.4722 17.9991C16.0223 17.5397 16.5863 17.0664 17.1503 16.5653C17.1503 16.5653 22.115 14.338 23.5982 8.6167C23.5982 8.6167 28.2913 16.7811 19.5178 20.9363C14.5252 23.1775 10.7651 26.2192 10.7581 31.843C9.59526 30.7016 8.80146 29.1355 8.5299 26.8943C8.52294 26.8247 8.51597 26.7621 8.50901 26.6925C8.16085 23.3724 10.4378 20.5257 12.8958 20.2125Z" fill="url(#paint4_linear_284_392)"></path><path d="M15.2494 34.2931C14.5043 34.0564 13.8011 33.792 13.1396 33.4787C13.1117 28.5579 16.8161 26.0939 22.1568 24.688C22.1568 24.688 25.3738 24.4304 26.5993 26.7482C21.4675 27.3537 15.514 29.7341 15.2494 34.2931Z" fill="url(#paint5_linear_284_392)"></path><path d="M22.1567 24.6812C16.816 26.0941 13.1116 28.5511 13.1395 33.4719C12.2412 33.0404 11.4404 32.5184 10.7581 31.8502C10.765 26.2263 14.5251 23.1777 19.5177 20.9435C19.6639 20.9296 24.2735 20.3519 25.7985 16.6978C25.7985 16.6978 28.2147 22.7253 22.1567 24.6812Z" fill="url(#paint6_linear_284_392)"></path><path d="M9.30977 29.7898C8.93376 28.9755 8.6622 28.0219 8.5299 26.9013C8.52294 26.8317 8.51597 26.7691 8.50901 26.6995C8.16085 23.3725 10.4378 20.5257 12.8958 20.2125C13.8846 20.0872 14.9012 20.3726 15.7925 21.2078C16.3356 21.883 16.447 22.5442 16.447 22.5442C16.447 22.5442 14.8455 21.2914 13.4389 21.2635C12.0254 21.2357 10.8834 22.4746 10.6258 24.6184C10.3821 26.6786 10.7372 30.5137 15.9735 31.9336C15.5627 32.6435 15.312 33.4231 15.2633 34.2792C14.5182 34.0425 13.8149 33.785 13.1534 33.4648V33.4579C13.1534 33.4579 13.1534 33.4579 13.1534 33.4648C12.2552 33.0333 11.4544 32.5113 10.772 31.8431C10.1802 31.2793 9.68579 30.6042 9.30977 29.7898Z" fill="url(#paint7_linear_284_392)"></path><path d="M16.5793 19.5862C16.3843 19.0015 16.0292 18.4586 15.4722 18.0062C16.0223 17.5468 16.5863 17.0735 17.1503 16.5724C17.1503 16.5724 22.115 14.3451 23.5982 8.62378C23.5982 8.62378 26.6968 17.1779 16.5793 19.5862Z" fill="url(#paint8_linear_284_392)"></path><path d="M20.0191 23.4352C16.5305 23.9989 14.2466 24.8898 12.7078 25.8016C14.2884 23.7205 16.7046 22.2032 19.5108 20.9503C19.657 20.9364 24.2666 20.3587 25.7915 16.7046C25.7985 16.6976 26.9822 22.3076 20.0191 23.4352Z" fill="url(#paint9_linear_284_392)"></path><path d="M15.8064 27.6252C17.387 26.2958 19.5804 25.3701 22.1568 24.688C22.1568 24.688 25.3738 24.4304 26.5993 26.7482C26.5993 26.7482 20.9382 25.203 15.8064 27.6252Z" fill="url(#paint10_linear_284_392)"></path><path d="M1.55977 27.7923C0.222845 24.5557 0.612782 21.3819 1.83133 19.0154C3.53731 15.6884 6.94925 14.4356 6.94925 14.4356C5.34773 12.6537 6.67073 10.0367 6.67073 10.0367C7.22082 11.1712 8.75271 11.8533 10.2637 12.4032C11.2873 11.2686 12.4919 8.61679 12.3875 5.80485C12.3109 3.77941 11.5519 1.67742 9.56044 0C9.56044 10.6213 -4.61655 13.7952 1.55977 27.7923Z" fill="url(#paint11_linear_284_392)"></path><path d="M12.3806 5.80485C12.4851 8.60983 11.2804 11.2617 10.2569 12.4032C9.42824 12.0969 8.59266 11.7559 7.91724 11.3243C12.4154 6.22246 9.55358 0 9.55358 0C11.545 1.67742 12.304 3.77941 12.3806 5.80485Z" fill="url(#paint12_linear_284_392)"></path><path d="M10.2568 12.4032C11.1063 12.7164 11.9558 12.9809 12.6313 13.2732C16.3914 8.30357 14.6645 3.41748 14.6645 3.41748C12.9864 4.33623 12.3806 5.80485 12.3806 5.80485C12.485 8.60982 11.2804 11.2617 10.2568 12.4032Z" fill="url(#paint13_linear_284_392)"></path><path d="M18.5151 39.4856C25.8543 40.2512 30.5196 44.5109 30.9444 46.6825C31.3622 48.8541 31.3482 52.0001 31.3482 52.0001C31.3482 52.0001 28.7928 42.7708 18.5151 39.4856Z" fill="url(#paint14_linear_284_392)"></path><path d="M27.3722 38.0864C33.8619 41.8798 34.1891 48.9235 34.1891 48.9235C31.188 41.4621 26.5297 39.8891 21.3421 38.9495C13.3763 36.8823 8.85023 34.5019 8.50903 26.6995C9.51173 36.3185 19.9704 33.7641 27.3722 38.0864Z" fill="url(#paint15_linear_284_392)"></path><path d="M13.3207 35.8871C10.7304 34.2445 9.14282 31.9546 8.64844 28.3283C8.68325 28.2865 8.72503 28.2448 8.75985 28.196C10.6747 36.0472 20.3814 34.0009 27.3724 38.0796C33.862 41.8729 34.1893 48.9167 34.1893 48.9167C32.6226 42.9866 28.2636 36.6667 13.3207 35.8871Z" fill="url(#paint16_linear_284_392)"></path><path d="M12.1508 15.5839C12.1508 15.5839 12.0672 16.3356 12.4781 16.7462C12.8889 17.1569 13.6409 17.0734 13.6409 17.0734C13.6409 17.0734 13.7245 16.3217 13.3136 15.911C12.8958 15.5004 12.1508 15.5839 12.1508 15.5839Z" fill="#DF482E"></path><path d="M12.6312 13.2732C12.3039 13.134 11.9349 12.9948 11.5449 12.8556C14.56 9.21537 14.6644 3.41748 14.6644 3.41748C14.6644 3.41748 16.3913 8.29661 12.6312 13.2732Z" fill="url(#paint17_linear_284_392)"></path><path d="M23.7166 40.7104C28.0128 42.3461 30.631 45.0815 30.9443 46.6823C31.3621 48.8539 31.3482 52 31.3482 52C31.3482 52 31.0627 44.7056 23.7166 40.7104Z" fill="url(#paint18_linear_284_392)"></path><path d="M1.55981 27.7923C-4.61651 13.7952 9.56048 10.6213 9.55351 0C10.5492 4.17615 9.10787 7.69107 7.38101 10.9276C7.07463 10.6631 6.83092 10.3708 6.6638 10.0367C6.6638 10.0367 5.91875 11.5192 6.22512 13.0087C5.73074 13.8857 5.25725 14.7488 4.83946 15.6049C3.81587 16.3357 2.63214 17.4424 1.83137 19.0084C0.612822 21.3819 0.215922 24.5557 1.55981 27.7923Z" fill="url(#paint19_linear_284_392)"></path><path d="M12.3806 5.80492C12.3806 5.80492 12.5059 5.49867 12.8054 5.08105C13.4181 9.74442 10.2568 12.4032 10.2568 12.4032C11.2804 11.2618 12.485 8.6099 12.3806 5.80492Z" fill="url(#paint20_linear_284_392)"></path><path d="M37.0511 14.6792C37.3923 14.6792 37.7892 14.6931 38.2418 14.7279C38.6944 14.7627 39.154 14.8323 39.6205 14.9506C40.0871 15.069 40.5466 15.2291 40.9923 15.4309C41.4379 15.6328 41.8348 15.9112 42.1969 16.2592C42.552 16.6072 42.8375 17.0387 43.0534 17.5468C43.2623 18.0549 43.3667 18.6674 43.3667 19.3843C43.3667 20.0525 43.2623 20.6302 43.0534 21.1174C42.8445 21.5977 42.566 22.0083 42.2248 22.3424C41.8836 22.6765 41.5006 22.948 41.0758 23.1498C40.6581 23.3517 40.2403 23.5118 39.8225 23.6162C39.4117 23.7275 39.0217 23.7971 38.6527 23.825C38.2836 23.8598 37.9842 23.8737 37.7544 23.8737H35.5332V30.117H32.4903V17.7278C32.4903 17.0248 32.3928 16.461 32.1978 16.0295C32.0029 15.598 31.5572 15.3891 30.8539 15.3891H30.6172V14.6862H37.0511V14.6792ZM37.0511 15.6188C36.8631 15.6188 36.6751 15.6258 36.4871 15.6397C36.2991 15.6536 36.139 15.6815 35.9927 15.7093C35.8187 15.7441 35.6655 15.765 35.5262 15.7789V22.9341H36.9328C37.3227 22.9341 37.7057 22.8784 38.0887 22.767C38.4716 22.6556 38.8128 22.4608 39.1053 22.1823C39.4047 21.9039 39.6414 21.5211 39.8155 21.0478C39.9966 20.5745 40.0871 19.9759 40.0871 19.259C40.0871 18.5421 39.9966 17.9505 39.8155 17.4842C39.6345 17.0178 39.4047 16.642 39.1122 16.3636C38.8267 16.0852 38.4995 15.8903 38.1444 15.7789C37.7892 15.6745 37.4202 15.6188 37.0511 15.6188Z" fill="#4C4A4A"></path><path d="M45.1631 17.7208C45.1631 17.0178 45.0656 16.4541 44.8707 16.0225C44.6757 15.591 44.2301 15.3822 43.5268 15.3822H43.29V14.6792H46.0962C46.5001 14.6792 46.8412 14.7279 47.1128 14.8323C47.3844 14.9367 47.6072 15.1038 47.7673 15.3335C47.9345 15.5701 48.0459 15.8764 48.1085 16.2661C48.1712 16.6559 48.1991 17.1362 48.1991 17.7139V19.7741C48.4149 19.621 48.6586 19.4679 48.9232 19.3286C49.1391 19.2173 49.4037 19.1198 49.717 19.0224C50.0304 18.9319 50.3785 18.8832 50.7685 18.8832C51.2977 18.8832 51.8269 18.9458 52.3561 19.0711C52.8853 19.1964 53.3588 19.4191 53.7835 19.7393C54.2013 20.0595 54.5495 20.498 54.8141 21.0478C55.0787 21.6046 55.211 22.3076 55.211 23.1637V30.1101H52.1681V23.2542C52.1681 22.6417 52.1124 22.1336 51.994 21.7299C51.8756 21.3262 51.7224 20.9921 51.5275 20.7346C51.3325 20.4771 51.1097 20.2892 50.859 20.1848C50.6083 20.0734 50.3437 20.0177 50.0652 20.0177C49.8006 20.0177 49.5569 20.0595 49.3271 20.15C49.1043 20.2335 48.9023 20.3309 48.7283 20.4423C48.5403 20.5676 48.3592 20.6998 48.1921 20.839V30.117H45.1492V17.7208H45.1631Z" fill="#4C4A4A"></path><path d="M57.3279 24.6184C57.3279 23.825 57.4532 23.0732 57.7109 22.3772C57.9685 21.6742 58.3375 21.0687 58.825 20.5536C59.3054 20.0386 59.8973 19.6349 60.5936 19.3356C61.2899 19.0363 62.0698 18.8901 62.9471 18.8901C63.8175 18.8901 64.6044 19.0363 65.3007 19.3356C65.997 19.6349 66.5819 20.0386 67.0693 20.5536C67.5498 21.0687 67.9258 21.6742 68.1834 22.3772C68.4411 23.0802 68.5664 23.825 68.5664 24.6184C68.5664 25.4119 68.4411 26.1636 68.1834 26.8596C67.9258 27.5626 67.5568 28.1681 67.0693 28.6832C66.5889 29.1983 65.997 29.602 65.3007 29.9012C64.6044 30.2005 63.8245 30.3467 62.9471 30.3467C62.0768 30.3467 61.2899 30.2005 60.5936 29.9012C59.8973 29.602 59.3124 29.1983 58.825 28.6832C58.3445 28.1681 57.9685 27.5626 57.7109 26.8596C57.4532 26.1636 57.3279 25.4119 57.3279 24.6184ZM65.3982 24.6184C65.3982 23.9502 65.3494 23.3308 65.245 22.76C65.1405 22.1893 64.9943 21.6951 64.7854 21.2775C64.5835 20.8599 64.3259 20.5328 64.0125 20.2961C63.6992 20.0595 63.344 19.9481 62.9332 19.9481C62.5294 19.9481 62.1673 20.0664 61.8539 20.2961C61.5406 20.5328 61.283 20.8599 61.081 21.2775C60.8791 21.6951 60.7259 22.1963 60.6215 22.76C60.517 23.3308 60.4683 23.9502 60.4683 24.6184C60.4683 25.2866 60.517 25.9061 60.6215 26.4768C60.7259 27.0475 60.8721 27.5417 61.081 27.9593C61.283 28.377 61.5406 28.7041 61.8539 28.9407C62.1673 29.1774 62.5224 29.2887 62.9332 29.2887C63.3371 29.2887 63.6992 29.1704 64.0125 28.9407C64.3259 28.7041 64.5835 28.377 64.7854 27.9593C64.9874 27.5417 65.1405 27.0406 65.245 26.4768C65.3425 25.9061 65.3982 25.2866 65.3982 24.6184Z" fill="#4C4A4A"></path><path d="M75.9891 29.2957C76.7968 29.2957 77.4583 29.1078 77.9666 28.7319C78.4749 28.3561 78.9276 27.8967 79.3384 27.3538L80.0626 27.8897C79.8885 28.1542 79.6865 28.4326 79.4428 28.718C79.1991 29.0034 78.9067 29.2748 78.5515 29.5115C78.2034 29.7551 77.7856 29.95 77.3121 30.1101C76.8386 30.2632 76.2816 30.3467 75.6409 30.3467C74.8123 30.3467 74.0673 30.2005 73.4058 29.9152C72.7443 29.6298 72.1803 29.2261 71.7068 28.711C71.2402 28.196 70.8781 27.5904 70.6275 26.9014C70.3768 26.2054 70.2515 25.4467 70.2515 24.6184C70.2515 23.6857 70.3838 22.8575 70.6484 22.1406C70.913 21.4237 71.275 20.8251 71.7346 20.3518C72.1942 19.8785 72.7373 19.5166 73.357 19.266C73.9837 19.0154 74.6591 18.8901 75.3903 18.8901C76.1214 18.8901 76.8038 19.0015 77.4235 19.2312C78.0502 19.4539 78.5864 19.7741 79.0459 20.1778C79.5055 20.5815 79.8676 21.0757 80.1322 21.6534C80.3968 22.2311 80.5291 22.8714 80.5291 23.5674C80.5291 23.7414 80.5221 23.9154 80.5152 24.0964C80.5082 24.2774 80.4943 24.4375 80.4803 24.5767C80.4664 24.7507 80.4455 24.9038 80.4316 25.043H73.3918C73.3918 26.5882 73.6286 27.6809 74.1021 28.3282C74.6104 28.9686 75.2301 29.2957 75.9891 29.2957ZM77.3957 23.985C77.3957 23.2055 77.3469 22.5582 77.2425 22.0431C77.138 21.5281 77.0057 21.1174 76.8316 20.8042C76.6576 20.491 76.4556 20.2683 76.2119 20.136C75.9682 20.0038 75.7036 19.9342 75.4042 19.9342C75.1396 19.9342 74.8889 20.0038 74.6452 20.136C74.4015 20.2683 74.1926 20.491 74.0116 20.8042C73.8305 21.1174 73.6843 21.5281 73.5798 22.0431C73.4684 22.5582 73.4127 23.2055 73.4127 23.985H77.3957Z" fill="#4C4A4A"></path><path d="M88.2025 20.0109C87.7011 20.0109 87.2694 20.0805 86.9073 20.2197C86.5383 20.3589 86.2528 20.5329 86.0509 20.7347C86.0648 20.8322 86.0926 20.9366 86.1205 21.0619C86.1483 21.1732 86.1762 21.3055 86.1901 21.4586C86.2041 21.6187 86.211 21.7857 86.211 21.9736V30.1032H83.1681V22.1616C83.1681 21.8205 83.1472 21.5003 83.1124 21.215C83.0706 20.9296 83.001 20.679 82.8896 20.4702C82.7782 20.2614 82.618 20.1013 82.3952 19.99C82.1793 19.8786 81.8939 19.8229 81.5527 19.8229H81.3159V19.1199H83.6346C84.1638 19.1199 84.5816 19.1895 84.888 19.3218C85.1944 19.454 85.4311 19.6768 85.5983 19.99C85.7375 19.8647 85.9046 19.7394 86.0996 19.6072C86.2946 19.4749 86.5313 19.3566 86.8029 19.2592C87.0744 19.1547 87.3878 19.0712 87.7499 19.0016C88.105 18.932 88.5297 18.8972 89.0102 18.8972C90.4725 18.8972 91.5796 19.2383 92.3316 19.9134C93.0767 20.5886 93.4527 21.6883 93.4527 23.1986V30.1171H90.4098V23.136C90.4098 21.9945 90.2009 21.1871 89.7762 20.7138C89.3723 20.2475 88.8361 20.0109 88.2025 20.0109Z" fill="#4C4A4A"></path><path d="M96.6001 22.1614C96.6001 21.4584 96.5027 20.8947 96.3077 20.4631C96.1127 20.0316 95.6671 19.8228 94.9638 19.8228H94.7271V19.1198H97.5332C97.9371 19.1198 98.2783 19.1685 98.5498 19.2729C98.8214 19.3773 99.0442 19.5444 99.2044 19.7741C99.3715 20.0107 99.4829 20.317 99.5456 20.7067C99.6082 21.0965 99.6361 21.5768 99.6361 22.1545V30.1031H96.5932V22.1614H96.6001ZM99.4063 16.5515C99.4063 16.9552 99.2809 17.2753 99.0303 17.512C98.7796 17.7486 98.4732 17.86 98.1181 17.86C97.5262 17.86 97.0876 17.679 96.7951 17.3241C96.5096 16.9691 96.3634 16.5515 96.3634 16.0851C96.3634 15.6814 96.4887 15.3613 96.7394 15.1246C96.9901 14.888 97.2895 14.7766 97.6516 14.7766C98.2434 14.7766 98.6821 14.9576 98.9746 15.3126C99.2601 15.6745 99.4063 16.0851 99.4063 16.5515Z" fill="#4C4A4A"></path><path d="M105.485 25.224L103.243 21.4585C102.916 20.8947 102.561 20.4632 102.178 20.15C101.795 19.8368 101.426 19.6489 101.063 19.5862V19.1199H103.285C104.051 19.1199 104.656 19.2869 105.095 19.621C105.541 19.9551 105.931 20.4145 106.279 20.9922L107.4 22.8854L110.464 19.1199H112.03L108.075 23.9851L110.345 27.7715C110.673 28.3352 111.028 28.7668 111.411 29.08C111.794 29.3932 112.163 29.5811 112.525 29.6438V30.1101H110.304C109.538 30.1101 108.932 29.9431 108.493 29.609C108.048 29.2749 107.658 28.8155 107.309 28.2378L106.161 26.3446L103.097 30.1101H101.53L105.485 25.224Z" fill="#4C4A4A"></path><path d="M32.9011 37.7594L31.5502 34.4533C31.4667 34.2375 31.3414 34.0774 31.1812 33.973C31.021 33.8686 30.833 33.799 30.6172 33.7781V33.6111H31.3344C31.592 33.6111 31.8009 33.6737 31.968 33.7921C32.1352 33.9104 32.2605 34.0774 32.351 34.2932L33.3189 36.6388L34.3843 33.7016H34.809L33.1587 38.2327C33.0752 38.4624 32.9847 38.6573 32.8941 38.8034C32.8036 38.9496 32.6992 39.0679 32.5947 39.1514C32.4903 39.235 32.3789 39.2906 32.2535 39.3254C32.1282 39.3533 31.9959 39.3742 31.8497 39.3742H31.599V39.1166C31.7243 39.1166 31.8427 39.1027 31.9541 39.0818C32.0655 39.054 32.17 39.0122 32.2605 38.9496C32.351 38.8869 32.4415 38.7965 32.5181 38.6781C32.5947 38.5598 32.6713 38.4137 32.7409 38.2327L32.9011 37.7594Z" fill="#E97B3F"></path><path d="M35.5332 35.6784C35.5332 35.393 35.575 35.1216 35.6585 34.871C35.7421 34.6204 35.8605 34.3977 36.0206 34.2168C36.1808 34.0288 36.3757 33.8827 36.6055 33.7713C36.8353 33.6599 37.0999 33.6042 37.3993 33.6042C37.6918 33.6042 37.9564 33.6599 38.1862 33.7713C38.416 33.8827 38.6109 34.0288 38.778 34.2168C38.9382 34.4047 39.0635 34.6204 39.1401 34.871C39.2237 35.1216 39.2655 35.393 39.2655 35.6784C39.2655 35.9638 39.2237 36.2352 39.1401 36.4858C39.0566 36.7364 38.9382 36.9591 38.778 37.1401C38.6179 37.328 38.4229 37.4741 38.1862 37.5855C37.9564 37.6969 37.6918 37.7526 37.3993 37.7526C37.0999 37.7526 36.8353 37.6969 36.6055 37.5855C36.3757 37.4741 36.1808 37.328 36.0206 37.1401C35.8605 36.9521 35.7351 36.7364 35.6585 36.4858C35.575 36.2422 35.5332 35.9707 35.5332 35.6784ZM38.4508 35.6784C38.4508 35.4348 38.4229 35.2051 38.3742 34.9963C38.3254 34.7875 38.2488 34.5996 38.1583 34.4464C38.0678 34.2933 37.9564 34.168 37.8241 34.0775C37.6918 33.9871 37.5525 33.9453 37.3924 33.9453C37.2322 33.9453 37.0929 33.9871 36.9606 34.0775C36.8284 34.168 36.7169 34.2933 36.6264 34.4464C36.5359 34.5996 36.4593 34.7875 36.4106 34.9963C36.3618 35.2051 36.334 35.4348 36.334 35.6784C36.334 35.922 36.3618 36.1517 36.4106 36.3605C36.4593 36.5693 36.5359 36.7572 36.6264 36.9104C36.7169 37.0635 36.8284 37.1888 36.9606 37.2793C37.0929 37.3697 37.2322 37.4115 37.3924 37.4115C37.5525 37.4115 37.6918 37.3697 37.8241 37.2793C37.9564 37.1888 38.0678 37.0635 38.1583 36.9104C38.2488 36.7572 38.3254 36.5693 38.3742 36.3605C38.4299 36.1517 38.4508 35.922 38.4508 35.6784Z" fill="#E97B3F"></path><path d="M43.7289 37.6689H43.3111L43.0117 37.3278H42.9699C42.8655 37.4322 42.7123 37.5297 42.5312 37.6202C42.3432 37.7106 42.1274 37.7524 41.8697 37.7524C41.6887 37.7524 41.5146 37.7315 41.3405 37.6898C41.1664 37.648 41.0133 37.5714 40.881 37.4531C40.7487 37.3348 40.6373 37.1817 40.5537 36.9798C40.4701 36.7849 40.4284 36.5344 40.4284 36.2281V34.7038C40.4284 34.4463 40.3935 34.2444 40.3239 34.0913C40.2543 33.9382 40.0941 33.8616 39.8365 33.8616H39.7529V33.6946H40.4284C40.5746 33.6946 40.6999 33.7085 40.7974 33.7294C40.8949 33.7572 40.9784 33.8059 41.0341 33.8825C41.0968 33.9591 41.1316 34.0635 41.1595 34.1957C41.1804 34.328 41.1943 34.502 41.1943 34.7108V36.2351C41.1943 36.4508 41.2222 36.6318 41.2779 36.771C41.3336 36.9172 41.4032 37.0355 41.4868 37.119C41.5773 37.2095 41.6748 37.2721 41.7862 37.3139C41.8976 37.3557 42.009 37.3766 42.1274 37.3766C42.2945 37.3766 42.4546 37.3348 42.6009 37.2443C42.7471 37.1538 42.8724 37.0494 42.9769 36.9311V33.6946H43.7428V37.6689H43.7289Z" fill="#E97B3F"></path><path d="M45.1911 34.7108C45.1911 34.4533 45.1562 34.2514 45.0866 34.0983C45.017 33.9452 44.8568 33.8686 44.5992 33.8686H44.5156V33.7016H45.1911C45.4069 33.7016 45.5671 33.7294 45.6785 33.7921C45.7899 33.8547 45.8665 33.9521 45.9083 34.0774H45.95C46.0336 33.973 46.1589 33.8686 46.333 33.7642C46.5001 33.6598 46.716 33.6111 46.9667 33.6111C47.0502 33.6111 47.1407 33.618 47.2382 33.6389C47.3357 33.6598 47.4123 33.6946 47.475 33.7364C47.5376 33.7851 47.5933 33.8338 47.6351 33.8965C47.6769 33.9591 47.7256 34.0287 47.7674 34.1192L47.4262 34.3767C47.3636 34.2932 47.273 34.2305 47.1477 34.1888C47.0293 34.147 46.8901 34.1261 46.7438 34.1261C46.5767 34.1261 46.4166 34.1609 46.2773 34.2375C46.138 34.3141 46.0197 34.4185 45.9361 34.5438V37.6759H45.1702V34.7108H45.1911Z" fill="#E97B3F"></path><path d="M53.7556 36.6528C53.7556 36.8338 53.7208 36.9939 53.6442 37.1261C53.5676 37.2584 53.4632 37.3767 53.3379 37.4672C53.2056 37.5577 53.0524 37.6342 52.8644 37.676C52.6833 37.7247 52.4814 37.7456 52.2725 37.7456C51.9313 37.7456 51.6597 37.7177 51.4439 37.6551C51.228 37.5925 51.0679 37.5159 50.9634 37.4045C50.859 37.3001 50.7963 37.1749 50.7754 37.0426C50.7615 36.9104 50.7476 36.7294 50.7476 36.5206H50.9147C50.9565 36.799 51.0818 37.0148 51.2698 37.1748C51.4648 37.3349 51.7363 37.4115 52.0984 37.4115C52.4187 37.4115 52.6555 37.3558 52.8087 37.2445C52.9549 37.1331 53.0315 36.9939 53.0315 36.8199C53.0315 36.6528 52.9688 36.5067 52.8435 36.3953C52.7181 36.277 52.5232 36.1656 52.2725 36.0612L51.7642 35.8524C51.4439 35.7202 51.1932 35.567 51.0122 35.393C50.8311 35.2121 50.7476 34.9893 50.7476 34.7109C50.7476 34.53 50.7824 34.3699 50.852 34.2376C50.9216 34.1054 51.0191 33.9871 51.1445 33.8966C51.2698 33.8061 51.416 33.7295 51.5831 33.6878C51.7503 33.639 51.9383 33.6182 52.1402 33.6182C52.4605 33.6182 52.7251 33.646 52.934 33.7086C53.1429 33.7713 53.303 33.8479 53.4075 33.9592C53.5119 34.0636 53.5746 34.1889 53.5955 34.3211C53.6094 34.4534 53.6233 34.6344 53.6233 34.8432H53.4562C53.4075 34.5648 53.2961 34.349 53.1081 34.1889C52.9201 34.0288 52.6555 33.9523 52.3143 33.9523C52.0357 33.9523 51.8268 34.0079 51.6806 34.1193C51.5344 34.2307 51.4648 34.3768 51.4648 34.5439C51.4648 34.69 51.5274 34.8223 51.6458 34.9476C51.7642 35.0659 51.9313 35.1773 52.1472 35.2677L52.6555 35.4766C53.0175 35.6227 53.2891 35.7828 53.4771 35.9568C53.6582 36.1308 53.7556 36.3605 53.7556 36.6528Z" fill="#E97B3F"></path><path d="M55.6846 37.669H54.9187V33.0961C54.9187 32.8456 54.8838 32.6368 54.8142 32.4836C54.7446 32.3305 54.5844 32.254 54.3268 32.254H54.1597V32.0869H54.9256C55.0718 32.0869 55.1972 32.1008 55.2947 32.1217C55.3921 32.1496 55.4757 32.1983 55.5314 32.2748C55.5941 32.3514 55.6289 32.4558 55.6567 32.5881C55.6776 32.7203 55.6916 32.8943 55.6916 33.1031V37.669H55.6846Z" fill="#E97B3F"></path><path d="M56.8823 35.6784C56.8823 35.393 56.9241 35.1216 57.0077 34.871C57.0912 34.6204 57.2096 34.3977 57.3697 34.2168C57.5299 34.0288 57.7249 33.8827 57.9546 33.7713C58.1844 33.6599 58.449 33.6042 58.7484 33.6042C59.0409 33.6042 59.3055 33.6599 59.5353 33.7713C59.7651 33.8827 59.96 34.0288 60.1272 34.2168C60.2873 34.4047 60.4126 34.6204 60.4892 34.871C60.5728 35.1216 60.6146 35.393 60.6146 35.6784C60.6146 35.9638 60.5728 36.2352 60.4892 36.4858C60.4057 36.7364 60.2873 36.9591 60.1272 37.1401C59.967 37.328 59.772 37.4741 59.5353 37.5855C59.3055 37.6969 59.0409 37.7526 58.7484 37.7526C58.449 37.7526 58.1844 37.6969 57.9546 37.5855C57.7249 37.4741 57.5299 37.328 57.3697 37.1401C57.2096 36.9521 57.0843 36.7364 57.0077 36.4858C56.9241 36.2422 56.8823 35.9707 56.8823 35.6784ZM59.8068 35.6784C59.8068 35.4348 59.779 35.2051 59.7303 34.9963C59.6815 34.7875 59.6049 34.5996 59.5144 34.4464C59.4239 34.2933 59.3125 34.168 59.1802 34.0775C59.0479 33.9871 58.9086 33.9453 58.7484 33.9453C58.5883 33.9453 58.449 33.9871 58.3167 34.0775C58.1844 34.168 58.073 34.2933 57.9825 34.4464C57.892 34.5996 57.8154 34.7875 57.7666 34.9963C57.7179 35.2051 57.69 35.4348 57.69 35.6784C57.69 35.922 57.7179 36.1517 57.7666 36.3605C57.8154 36.5693 57.892 36.7572 57.9825 36.9104C58.073 37.0635 58.1844 37.1888 58.3167 37.2793C58.449 37.3697 58.5883 37.4115 58.7484 37.4115C58.9086 37.4115 59.0479 37.3697 59.1802 37.2793C59.3125 37.1888 59.4239 37.0635 59.5144 36.9104C59.6049 36.7572 59.6815 36.5693 59.7303 36.3605C59.779 36.1517 59.8068 35.922 59.8068 35.6784Z" fill="#E97B3F"></path><path d="M61.6311 34.878C61.6311 34.6344 61.6728 34.4325 61.7564 34.2655C61.84 34.0984 61.9583 33.9731 62.0976 33.8757C62.2438 33.7783 62.4109 33.7087 62.6129 33.6669C62.8078 33.6251 63.0167 33.6042 63.2396 33.6042H64.8063V33.8131L64.2562 33.8966V33.9383C64.4233 34.0219 64.5695 34.1471 64.6809 34.3072C64.7923 34.4673 64.848 34.6552 64.848 34.871C64.848 35.1146 64.8063 35.3165 64.7227 35.4835C64.6392 35.6506 64.5208 35.7758 64.3815 35.8733C64.2353 35.9707 64.0682 36.0403 63.8662 36.0821C63.6713 36.1239 63.4624 36.1447 63.2396 36.1447C62.6477 36.1447 62.3483 36.2422 62.3483 36.444C62.3483 36.6389 62.6477 36.7433 63.2396 36.7433C63.4972 36.7433 63.7339 36.7712 63.9568 36.8199C64.1796 36.8686 64.3815 36.9452 64.5486 37.0496C64.7157 37.154 64.855 37.2862 64.9525 37.4533C65.05 37.6203 65.0987 37.8222 65.0987 38.0518C65.0987 38.2955 65.05 38.4973 64.9525 38.6643C64.855 38.8314 64.7227 38.9636 64.5556 39.068C64.3885 39.1724 64.1935 39.249 63.9637 39.2908C63.7409 39.3325 63.4902 39.3604 63.2256 39.3604C62.961 39.3604 62.7173 39.3395 62.4875 39.2908C62.2647 39.242 62.0628 39.1724 61.8957 39.068C61.7286 38.9636 61.5963 38.8314 61.4988 38.6643C61.4013 38.4973 61.3525 38.2955 61.3525 38.0518C61.3525 37.7734 61.4431 37.5437 61.6311 37.3558C61.8121 37.1679 62.0349 37.0357 62.2856 36.9521C62.202 36.9104 62.1255 36.8408 62.0558 36.7642C61.9862 36.6807 61.9514 36.5763 61.9514 36.444C61.9514 36.3118 61.9862 36.2143 62.0558 36.1447C62.1255 36.0751 62.1881 36.0195 62.2508 35.9777C62.0837 35.8942 61.9305 35.755 61.8051 35.574C61.6937 35.3861 61.6311 35.1564 61.6311 34.878ZM62.8635 37.0356C62.6477 37.1192 62.4736 37.2445 62.3413 37.3976C62.209 37.5577 62.1394 37.7734 62.1394 38.0518C62.1394 38.3929 62.2438 38.6365 62.4458 38.7896C62.6546 38.9428 62.9193 39.0193 63.2396 39.0193C63.5599 39.0193 63.8245 38.9428 64.0334 38.7896C64.2422 38.6365 64.3397 38.3859 64.3397 38.0518C64.3397 37.4881 63.9985 37.1609 63.3231 37.0774L62.8635 37.0356ZM64.0891 34.878C64.0891 34.5369 64.0055 34.2933 63.8454 34.1402C63.6782 33.9871 63.4833 33.9105 63.2465 33.9105C63.1281 33.9105 63.0167 33.9244 62.9192 33.9592C62.8148 33.994 62.7312 34.0497 62.6546 34.1263C62.5781 34.2028 62.5154 34.3003 62.4736 34.4256C62.4249 34.5508 62.404 34.704 62.404 34.8849C62.404 35.0659 62.4249 35.219 62.4736 35.3443C62.5154 35.4696 62.5781 35.567 62.6546 35.6436C62.7312 35.7202 62.8218 35.7758 62.9192 35.8106C63.0237 35.8454 63.1281 35.8594 63.2465 35.8594C63.3649 35.8594 63.4763 35.8454 63.5738 35.8106C63.6782 35.7758 63.7618 35.7202 63.8384 35.6436C63.915 35.567 63.9777 35.4696 64.0194 35.3443C64.0682 35.2121 64.0891 35.0589 64.0891 34.878Z" fill="#E97B3F"></path><path d="M68.5804 37.6689L68.281 37.2861H68.2392C68.1557 37.3905 68.0164 37.4949 67.8214 37.5993C67.6265 37.7037 67.3758 37.7524 67.0485 37.7524C66.9301 37.7524 66.7978 37.7315 66.6586 37.6967C66.5193 37.6619 66.387 37.5993 66.2617 37.5088C66.1363 37.4183 66.0319 37.3 65.9483 37.1469C65.8648 36.9938 65.823 36.8058 65.823 36.5692C65.823 36.3395 65.8857 36.1446 66.004 35.9915C66.1224 35.8384 66.2826 35.72 66.4775 35.6296C66.6725 35.5391 66.9023 35.4764 67.1669 35.4416C67.4245 35.4068 67.7031 35.3859 67.9885 35.3859H68.2462C68.2462 35.0936 68.2253 34.85 68.1765 34.6621C68.1278 34.4741 68.0721 34.328 67.9885 34.2236C67.9119 34.1192 67.8145 34.0496 67.7031 34.0078C67.5916 33.9661 67.4733 33.9452 67.3549 33.9452C67.1181 33.9452 66.9162 33.9939 66.7561 34.0983C66.5959 34.2027 66.4845 34.3906 66.4218 34.669H66.0389C66.0389 34.5229 66.0458 34.3837 66.0667 34.2584C66.0806 34.1331 66.1433 34.0148 66.2547 33.9104C66.3035 33.8616 66.38 33.8129 66.4706 33.7781C66.5611 33.7364 66.6655 33.7085 66.777 33.6876C66.8884 33.6668 67.0067 33.6459 67.139 33.6389C67.2644 33.625 67.3967 33.625 67.522 33.625C67.717 33.625 67.898 33.6459 68.0791 33.6876C68.2601 33.7294 68.4133 33.8129 68.5526 33.9382C68.6918 34.0635 68.8032 34.2445 68.8798 34.4811C68.9634 34.7178 69.0052 35.024 69.0052 35.3999V37.6898H68.5804V37.6689ZM68.2392 35.727H67.9816C67.5568 35.727 67.2296 35.8036 66.9858 35.9567C66.7491 36.1098 66.6238 36.3186 66.6238 36.5692C66.6238 36.7014 66.6447 36.8198 66.6934 36.9242C66.7352 37.0286 66.7978 37.1121 66.8744 37.1747C66.951 37.2443 67.0346 37.2931 67.1251 37.3209C67.2226 37.3487 67.3201 37.3696 67.4315 37.3696C67.6404 37.3696 67.8075 37.3209 67.9259 37.2095C68.0442 37.1051 68.1487 36.9868 68.2323 36.8615V35.727H68.2392Z" fill="#E97B3F"></path><path d="M70.4812 34.7109C70.4812 34.4534 70.4463 34.2515 70.3767 34.0984C70.3071 33.9453 70.1469 33.8687 69.8893 33.8687H69.7222V33.7017H70.4881C70.704 33.7017 70.8641 33.7295 70.9755 33.7922C71.0869 33.8548 71.1635 33.9314 71.2053 34.0427H71.2471C71.3515 33.9383 71.5047 33.8409 71.6858 33.7504C71.8738 33.6599 72.0896 33.6182 72.3473 33.6182C72.5283 33.6182 72.7024 33.639 72.8765 33.6808C73.0506 33.7226 73.2037 33.7991 73.336 33.9175C73.4683 34.0358 73.5798 34.1889 73.6633 34.3908C73.7469 34.5856 73.7886 34.8362 73.7886 35.1425V37.6829H73.0227V35.1425C73.0227 34.9337 72.9949 34.7527 72.9391 34.6065C72.8834 34.4604 72.8138 34.342 72.7303 34.2515C72.6397 34.1611 72.5422 34.0984 72.4308 34.0567C72.3194 34.0149 72.208 33.994 72.0896 33.994C71.9225 33.994 71.7624 34.0358 71.6161 34.1263C71.4699 34.2167 71.3446 34.3211 71.2401 34.4395V37.676H70.4742V34.7109H70.4812Z" fill="#E97B3F"></path><path d="M77.2841 34.878C77.2841 34.6344 77.3259 34.4325 77.4095 34.2655C77.493 34.0984 77.6114 33.9731 77.7507 33.8757C77.8969 33.7783 78.064 33.7087 78.2659 33.6669C78.4609 33.6251 78.6698 33.6042 78.8926 33.6042H80.4593V33.8131L79.9092 33.8966V33.9383C80.0764 34.0219 80.2226 34.1471 80.334 34.3072C80.4454 34.4673 80.5011 34.6552 80.5011 34.871C80.5011 35.1146 80.4593 35.3165 80.3758 35.4835C80.2922 35.6506 80.1739 35.7758 80.0346 35.8733C79.8884 35.9707 79.7212 36.0403 79.5193 36.0821C79.3243 36.1239 79.1154 36.1447 78.8926 36.1447C78.3008 36.1447 78.0013 36.2422 78.0013 36.444C78.0013 36.6389 78.3008 36.7433 78.8926 36.7433C79.1503 36.7433 79.387 36.7712 79.6098 36.8199C79.8327 36.8686 80.0346 36.9452 80.2017 37.0496C80.3688 37.154 80.5081 37.2862 80.6056 37.4533C80.703 37.6203 80.7518 37.8222 80.7518 38.0518C80.7518 38.2955 80.703 38.4973 80.6056 38.6643C80.5081 38.8314 80.3758 38.9636 80.2087 39.068C80.0416 39.1724 79.8466 39.249 79.6168 39.2908C79.394 39.3325 79.1433 39.3604 78.8787 39.3604C78.6141 39.3604 78.3704 39.3395 78.1406 39.2908C77.9178 39.242 77.7159 39.1724 77.5487 39.068C77.3816 38.9636 77.2493 38.8314 77.1518 38.6643C77.0544 38.4973 77.0056 38.2955 77.0056 38.0518C77.0056 37.7734 77.0961 37.5437 77.2841 37.3558C77.4652 37.1679 77.688 37.0357 77.9387 36.9521C77.8551 36.9104 77.7785 36.8408 77.7089 36.7642C77.6393 36.6807 77.6044 36.5763 77.6044 36.444C77.6044 36.3118 77.6393 36.2143 77.7089 36.1447C77.7785 36.0751 77.8412 36.0195 77.9039 35.9777C77.7367 35.8942 77.5836 35.755 77.4582 35.574C77.3468 35.3861 77.2841 35.1564 77.2841 34.878ZM78.5097 37.0356C78.2938 37.1192 78.1197 37.2445 77.9874 37.3976C77.8551 37.5577 77.7855 37.7734 77.7855 38.0518C77.7855 38.3929 77.8899 38.6365 78.0919 38.7896C78.3008 38.9428 78.5654 39.0193 78.8857 39.0193C79.206 39.0193 79.4706 38.9428 79.6795 38.7896C79.8884 38.6365 79.9858 38.3859 79.9858 38.0518C79.9858 37.4881 79.6446 37.1609 78.9692 37.0774L78.5097 37.0356ZM79.7352 34.878C79.7352 34.5369 79.6516 34.2933 79.4915 34.1402C79.3243 33.9871 79.1294 33.9105 78.8926 33.9105C78.7743 33.9105 78.6628 33.9244 78.5654 33.9592C78.4609 33.994 78.3774 34.0497 78.3008 34.1263C78.2242 34.2028 78.1615 34.3003 78.1197 34.4256C78.0779 34.5508 78.0501 34.704 78.0501 34.8849C78.0501 35.0659 78.071 35.219 78.1197 35.3443C78.1615 35.4696 78.2242 35.567 78.3008 35.6436C78.3774 35.7202 78.4679 35.7758 78.5654 35.8106C78.6698 35.8454 78.7743 35.8594 78.8926 35.8594C79.011 35.8594 79.1224 35.8454 79.2199 35.8106C79.3243 35.7758 79.4079 35.7202 79.4845 35.6436C79.5611 35.567 79.6238 35.4696 79.6655 35.3443C79.7143 35.2121 79.7352 35.0589 79.7352 34.878Z" fill="#E97B3F"></path><path d="M81.5249 35.6784C81.5249 35.393 81.5667 35.1216 81.6502 34.871C81.7338 34.6204 81.8522 34.3977 82.0123 34.2168C82.1725 34.0288 82.3674 33.8827 82.5972 33.7713C82.827 33.6599 83.0916 33.6042 83.391 33.6042C83.6835 33.6042 83.9481 33.6599 84.1779 33.7713C84.4076 33.8827 84.6026 34.0288 84.7697 34.2168C84.9299 34.4047 85.0552 34.6204 85.1318 34.871C85.2154 35.1216 85.2572 35.393 85.2572 35.6784C85.2572 35.9638 85.2154 36.2352 85.1318 36.4858C85.0483 36.7364 84.9299 36.9591 84.7697 37.1401C84.6096 37.328 84.4146 37.4741 84.1779 37.5855C83.9481 37.6969 83.6835 37.7526 83.391 37.7526C83.0916 37.7526 82.827 37.6969 82.5972 37.5855C82.3674 37.4741 82.1725 37.328 82.0123 37.1401C81.8522 36.9521 81.7268 36.7364 81.6502 36.4858C81.5667 36.2422 81.5249 35.9707 81.5249 35.6784ZM84.4494 35.6784C84.4494 35.4348 84.4216 35.2051 84.3728 34.9963C84.3241 34.7875 84.2475 34.5996 84.157 34.4464C84.0664 34.2933 83.955 34.168 83.8227 34.0775C83.6904 33.9871 83.5512 33.9453 83.391 33.9453C83.2309 33.9453 83.0916 33.9871 82.9593 34.0775C82.827 34.168 82.7156 34.2933 82.6251 34.4464C82.5346 34.5996 82.458 34.7875 82.4092 34.9963C82.3605 35.2051 82.3326 35.4348 82.3326 35.6784C82.3326 35.922 82.3605 36.1517 82.4092 36.3605C82.458 36.5693 82.5346 36.7572 82.6251 36.9104C82.7156 37.0635 82.827 37.1888 82.9593 37.2793C83.0916 37.3697 83.2309 37.4115 83.391 37.4115C83.5512 37.4115 83.6904 37.3697 83.8227 37.2793C83.955 37.1888 84.0664 37.0635 84.157 36.9104C84.2475 36.7572 84.3241 36.5693 84.3728 36.3605C84.4216 36.1517 84.4494 35.922 84.4494 35.6784Z" fill="#E97B3F"></path><path d="M89.5604 35.8106H86.991C86.991 36.0403 87.0188 36.2561 87.0676 36.451C87.1163 36.6459 87.1929 36.8199 87.2904 36.966C87.3879 37.1122 87.5062 37.2236 87.6525 37.3001C87.7917 37.3767 87.9519 37.4185 88.1329 37.4185C88.4114 37.4185 88.6412 37.3558 88.8223 37.2375C89.0033 37.1192 89.1704 36.9521 89.3167 36.7364L89.4838 36.8616C89.2888 37.1818 89.0729 37.4115 88.8153 37.5507C88.5646 37.683 88.2791 37.7526 87.9588 37.7526C87.6594 37.7526 87.4018 37.6969 87.179 37.5855C86.9561 37.4741 86.7751 37.328 86.6219 37.1401C86.4687 36.9521 86.3573 36.7364 86.2877 36.4858C86.2111 36.2352 86.1763 35.9638 86.1763 35.6784C86.1763 35.393 86.2111 35.1216 86.2877 34.871C86.3643 34.6204 86.4757 34.3977 86.6219 34.2168C86.7681 34.0288 86.9492 33.8827 87.1581 33.7713C87.367 33.6599 87.6037 33.6042 87.8683 33.6042C88.4463 33.6042 88.871 33.7643 89.1495 34.0845C89.4281 34.4047 89.5673 34.8641 89.5673 35.4626L89.5604 35.8106ZM88.7666 35.4696C88.7666 34.9754 88.69 34.5996 88.5437 34.342C88.3975 34.0775 88.1747 33.9453 87.8753 33.9453C87.743 33.9453 87.6246 33.9801 87.5202 34.0567C87.4157 34.1332 87.3182 34.2376 87.2416 34.3768C87.165 34.5091 87.1024 34.6761 87.0536 34.8571C87.0049 35.045 86.984 35.2469 86.984 35.4696H88.7666Z" fill="#E97B3F"></path><path d="M93.5293 36.6528C93.5293 36.8338 93.4945 36.9939 93.4179 37.1261C93.3413 37.2584 93.2369 37.3767 93.1115 37.4672C92.9792 37.5577 92.826 37.6342 92.638 37.676C92.457 37.7247 92.2551 37.7456 92.0462 37.7456C91.705 37.7456 91.4334 37.7177 91.2176 37.6551C91.0017 37.5925 90.8415 37.5159 90.7371 37.4045C90.6326 37.3001 90.57 37.1749 90.5491 37.0426C90.5352 36.9104 90.5212 36.7294 90.5212 36.5206H90.6884C90.7301 36.799 90.8555 37.0148 91.0435 37.1748C91.2384 37.3349 91.51 37.4115 91.8721 37.4115C92.1924 37.4115 92.4291 37.3558 92.5823 37.2445C92.7286 37.1331 92.8052 36.9939 92.8052 36.8199C92.8052 36.6528 92.7425 36.5067 92.6171 36.3953C92.4918 36.277 92.2968 36.1656 92.0462 36.0612L91.5379 35.8524C91.2176 35.7202 90.9669 35.567 90.7858 35.393C90.6048 35.2121 90.5212 34.9893 90.5212 34.7109C90.5212 34.53 90.5561 34.3699 90.6257 34.2376C90.6953 34.1054 90.7928 33.9871 90.9181 33.8966C91.0435 33.8061 91.1897 33.7295 91.3568 33.6878C91.5239 33.639 91.7119 33.6182 91.9139 33.6182C92.2342 33.6182 92.4988 33.646 92.7077 33.7086C92.9166 33.7713 93.0767 33.8479 93.1812 33.9592C93.2856 34.0636 93.3483 34.1889 93.3692 34.3211C93.3831 34.4534 93.397 34.6344 93.397 34.8432H93.2299C93.1812 34.5648 93.0698 34.349 92.8818 34.1889C92.6937 34.0288 92.4291 33.9523 92.088 33.9523C91.8094 33.9523 91.6005 34.0079 91.4543 34.1193C91.3081 34.2307 91.2384 34.3768 91.2384 34.5439C91.2384 34.69 91.3011 34.8223 91.4195 34.9476C91.5379 35.0659 91.705 35.1773 91.9208 35.2677L92.4291 35.4766C92.7912 35.6227 93.0628 35.7828 93.2508 35.9568C93.4388 36.1308 93.5293 36.3605 93.5293 36.6528Z" fill="#E97B3F"></path><path d="M97.7143 34.0287C97.8187 33.9243 97.9719 33.8269 98.1529 33.7364C98.3409 33.6459 98.5568 33.6041 98.8144 33.6041C98.9955 33.6041 99.1696 33.625 99.3436 33.6668C99.5177 33.7085 99.6709 33.7851 99.8032 33.9034C99.9355 34.0217 100.047 34.1749 100.13 34.3767C100.214 34.5716 100.256 34.8222 100.256 35.1284V37.6689H99.4899V35.1284C99.4899 34.9196 99.462 34.7386 99.4063 34.5925C99.3506 34.4463 99.281 34.328 99.1974 34.2375C99.1069 34.147 99.0094 34.0844 98.898 34.0426C98.7866 34.0009 98.6752 33.98 98.5568 33.98C98.3897 33.98 98.2295 34.0217 98.0833 34.1122C97.9371 34.2027 97.8117 34.3071 97.7073 34.4254V37.662H96.9414V33.0891C96.9414 32.8385 96.9065 32.6297 96.8369 32.4766C96.7673 32.3234 96.6071 32.2469 96.3495 32.2469H96.1824V32.0798H96.9483C97.0945 32.0798 97.2199 32.0938 97.3174 32.1146C97.4148 32.1425 97.4984 32.1912 97.5541 32.2678C97.6168 32.3443 97.6516 32.4487 97.6795 32.581C97.7003 32.7132 97.7143 32.8872 97.7143 33.096V34.0287Z" fill="#E97B3F"></path><path d="M104.747 35.8106H102.177C102.177 36.0403 102.205 36.2561 102.254 36.451C102.303 36.6459 102.379 36.8199 102.477 36.966C102.574 37.1122 102.693 37.2236 102.839 37.3001C102.978 37.3767 103.138 37.4185 103.319 37.4185C103.598 37.4185 103.828 37.3558 104.009 37.2375C104.19 37.1192 104.357 36.9521 104.503 36.7364L104.67 36.8616C104.475 37.1818 104.259 37.4115 104.002 37.5507C103.751 37.683 103.466 37.7526 103.145 37.7526C102.846 37.7526 102.588 37.6969 102.365 37.5855C102.143 37.4741 101.962 37.328 101.808 37.1401C101.655 36.9521 101.544 36.7364 101.474 36.4858C101.398 36.2352 101.363 35.9638 101.363 35.6784C101.363 35.393 101.398 35.1216 101.474 34.871C101.551 34.6204 101.662 34.3977 101.808 34.2168C101.955 34.0288 102.136 33.8827 102.345 33.7713C102.553 33.6599 102.79 33.6042 103.055 33.6042C103.633 33.6042 104.058 33.7643 104.336 34.0845C104.615 34.4047 104.754 34.8641 104.754 35.4626L104.747 35.8106ZM103.96 35.4696C103.96 34.9754 103.883 34.5996 103.737 34.342C103.591 34.0775 103.368 33.9453 103.069 33.9453C102.936 33.9453 102.818 33.9801 102.714 34.0567C102.609 34.1332 102.512 34.2376 102.435 34.3768C102.359 34.5091 102.296 34.6761 102.247 34.8571C102.198 35.045 102.177 35.2469 102.177 35.4696H103.96Z" fill="#E97B3F"></path><path d="M105.973 34.7108C105.973 34.4533 105.938 34.2514 105.868 34.0983C105.798 33.9452 105.638 33.8686 105.381 33.8686H105.297V33.7016H105.973C106.188 33.7016 106.349 33.7294 106.46 33.7921C106.571 33.8547 106.648 33.9521 106.69 34.0774H106.732C106.815 33.973 106.94 33.8686 107.115 33.7642C107.282 33.6598 107.497 33.6111 107.748 33.6111C107.832 33.6111 107.922 33.618 108.02 33.6389C108.117 33.6598 108.194 33.6946 108.256 33.7364C108.319 33.7851 108.375 33.8338 108.417 33.8965C108.458 33.9591 108.507 34.0287 108.549 34.1192L108.208 34.3767C108.145 34.2932 108.055 34.2305 107.929 34.1888C107.811 34.147 107.672 34.1261 107.525 34.1261C107.358 34.1261 107.198 34.1609 107.059 34.2375C106.92 34.3141 106.801 34.4185 106.718 34.5438V37.6759H105.952V34.7108H105.973Z" fill="#E97B3F"></path><path d="M112.511 35.8106H109.941C109.941 36.0403 109.969 36.2561 110.018 36.451C110.067 36.6459 110.143 36.8199 110.241 36.966C110.338 37.1122 110.457 37.2236 110.603 37.3001C110.742 37.3767 110.902 37.4185 111.083 37.4185C111.362 37.4185 111.592 37.3558 111.773 37.2375C111.954 37.1192 112.121 36.9521 112.267 36.7364L112.434 36.8616C112.239 37.1818 112.023 37.4115 111.766 37.5507C111.515 37.683 111.23 37.7526 110.909 37.7526C110.61 37.7526 110.352 37.6969 110.129 37.5855C109.907 37.4741 109.726 37.328 109.572 37.1401C109.426 36.9521 109.308 36.7364 109.238 36.4858C109.162 36.2352 109.127 35.9638 109.127 35.6784C109.127 35.393 109.162 35.1216 109.238 34.871C109.315 34.6204 109.426 34.3977 109.572 34.2168C109.719 34.0288 109.9 33.8827 110.109 33.7713C110.317 33.6599 110.554 33.6042 110.819 33.6042C111.397 33.6042 111.821 33.7643 112.1 34.0845C112.379 34.4047 112.518 34.8641 112.518 35.4626L112.511 35.8106ZM111.717 35.4696C111.717 34.9754 111.64 34.5996 111.494 34.342C111.348 34.0775 111.125 33.9453 110.826 33.9453C110.693 33.9453 110.575 33.9801 110.471 34.0567C110.366 34.1332 110.269 34.2376 110.192 34.3768C110.115 34.5091 110.053 34.6761 110.004 34.8571C109.955 35.045 109.934 35.2469 109.934 35.4696H111.717Z" fill="#E97B3F"></path></g><defs><linearGradient id="paint0_linear_284_392" x1="7.60572" y1="14.0218" x2="4.14743" y2="7.38217" gradientUnits="userSpaceOnUse"><stop stop-color="white"></stop><stop offset="1" stop-color="#608AA9"></stop></linearGradient><linearGradient id="paint1_linear_284_392" x1="6.6872" y1="32.8026" x2="22.5175" y2="14.7186" gradientUnits="userSpaceOnUse"><stop stop-color="white"></stop><stop offset="1" stop-color="#CD9BB2"></stop></linearGradient><linearGradient id="paint2_linear_284_392" x1="22.2245" y1="5.00787" x2="2.79196" y2="23.6343" gradientUnits="userSpaceOnUse"><stop offset="0.00372688" stop-color="#FFC811"></stop><stop offset="0.2198" stop-color="#EC8B28"></stop><stop offset="0.4699" stop-color="#DE442E"></stop><stop offset="0.6148" stop-color="#C82A5A"></stop><stop offset="0.8343" stop-color="#774293"></stop><stop offset="1" stop-color="#4C3C93"></stop></linearGradient><linearGradient id="paint3_linear_284_392" x1="20.3499" y1="6.50718" x2="13.7352" y2="9.79046" gradientUnits="userSpaceOnUse"><stop stop-color="#F1F2F2"></stop><stop offset="1" stop-color="#F1F2F2"></stop></linearGradient><linearGradient id="paint4_linear_284_392" x1="27.4098" y1="10.4365" x2="7.97732" y2="29.0628" gradientUnits="userSpaceOnUse"><stop offset="0.00372688" stop-color="#FFC811"></stop><stop offset="0.2198" stop-color="#EC8B28"></stop><stop offset="0.4699" stop-color="#DE442E"></stop><stop offset="0.6148" stop-color="#C82A5A"></stop><stop offset="0.8343" stop-color="#774293"></stop><stop offset="1" stop-color="#4C3C93"></stop></linearGradient><linearGradient id="paint5_linear_284_392" x1="32.801" y1="16.061" x2="13.3685" y2="34.6873" gradientUnits="userSpaceOnUse"><stop offset="0.00372688" stop-color="#FFC811"></stop><stop offset="0.2198" stop-color="#EC8B28"></stop><stop offset="0.4699" stop-color="#DE442E"></stop><stop offset="0.6148" stop-color="#C82A5A"></stop><stop offset="0.8343" stop-color="#774293"></stop><stop offset="1" stop-color="#4C3C93"></stop></linearGradient><linearGradient id="paint6_linear_284_392" x1="30.2407" y1="13.3902" x2="10.8082" y2="32.0166" gradientUnits="userSpaceOnUse"><stop offset="0.00372688" stop-color="#FFC811"></stop><stop offset="0.2198" stop-color="#EC8B28"></stop><stop offset="0.4699" stop-color="#DE442E"></stop><stop offset="0.6148" stop-color="#C82A5A"></stop><stop offset="0.8343" stop-color="#774293"></stop><stop offset="1" stop-color="#4C3C93"></stop></linearGradient><linearGradient id="paint7_linear_284_392" x1="-0.727321" y1="19.0668" x2="16.7886" y2="28.5347" gradientUnits="userSpaceOnUse"><stop stop-color="#231F20"></stop><stop offset="1" stop-color="#231F20"></stop></linearGradient><linearGradient id="paint8_linear_284_392" x1="25.9882" y1="11.31" x2="15.6846" y2="16.6167" gradientUnits="userSpaceOnUse"><stop stop-color="#F1F2F2"></stop><stop offset="1" stop-color="#F1F2F2"></stop></linearGradient><linearGradient id="paint9_linear_284_392" x1="29.5236" y1="18.4668" x2="16.191" y2="22.0814" gradientUnits="userSpaceOnUse"><stop stop-color="#F1F2F2"></stop><stop offset="1" stop-color="#F1F2F2"></stop></linearGradient><linearGradient id="paint10_linear_284_392" x1="27.233" y1="23.7939" x2="20.0588" y2="27.6879" gradientUnits="userSpaceOnUse"><stop stop-color="#F1F2F2"></stop><stop offset="1" stop-color="#F1F2F2"></stop></linearGradient><linearGradient id="paint11_linear_284_392" x1="5.41193" y1="-1.40692" x2="6.74667" y2="24.4603" gradientUnits="userSpaceOnUse"><stop stop-color="#F23B38"></stop><stop offset="0.543" stop-color="#711EBA"></stop><stop offset="1" stop-color="#3236AD"></stop></linearGradient><linearGradient id="paint12_linear_284_392" x1="9.66766" y1="-0.74215" x2="10.2739" y2="11.008" gradientUnits="userSpaceOnUse"><stop stop-color="#F1F2F2"></stop><stop offset="1" stop-color="#F1F2F2"></stop></linearGradient><linearGradient id="paint13_linear_284_392" x1="17.9763" y1="4.03494" x2="3.09671" y2="18.3864" gradientUnits="userSpaceOnUse"><stop stop-color="#F23B38"></stop><stop offset="0.543" stop-color="#711EBA"></stop><stop offset="1" stop-color="#3236AD"></stop></linearGradient><linearGradient id="paint14_linear_284_392" x1="31.3449" y1="45.7446" x2="18.5152" y2="45.7446" gradientUnits="userSpaceOnUse"><stop stop-color="#E0502D"></stop><stop offset="1" stop-color="#944676"></stop></linearGradient><linearGradient id="paint15_linear_284_392" x1="35.8957" y1="29.1244" x2="7.19966" y2="46.278" gradientUnits="userSpaceOnUse"><stop offset="0.00372688" stop-color="#FFC811"></stop><stop offset="0.2198" stop-color="#EC8B28"></stop><stop offset="0.4699" stop-color="#DE442E"></stop><stop offset="0.6148" stop-color="#C82A5A"></stop><stop offset="0.8343" stop-color="#774293"></stop><stop offset="1" stop-color="#4C3C93"></stop></linearGradient><linearGradient id="paint16_linear_284_392" x1="23.8955" y1="29.6862" x2="20.3105" y2="42.6586" gradientUnits="userSpaceOnUse"><stop stop-color="#F1F2F2"></stop><stop offset="1" stop-color="#F1F2F2"></stop></linearGradient><linearGradient id="paint17_linear_284_392" x1="12.967" y1="2.92562" x2="13.4423" y2="12.1377" gradientUnits="userSpaceOnUse"><stop stop-color="#F1F2F2"></stop><stop offset="1" stop-color="#F1F2F2"></stop></linearGradient><linearGradient id="paint18_linear_284_392" x1="39.7283" y1="46.0086" x2="25.4788" y2="46.4159" gradientUnits="userSpaceOnUse"><stop stop-color="#F1F2F2"></stop><stop offset="1" stop-color="#F1F2F2"></stop></linearGradient><linearGradient id="paint19_linear_284_392" x1="-18.6993" y1="16.3699" x2="14.2012" y2="13.0098" gradientUnits="userSpaceOnUse"><stop stop-color="#231F20"></stop><stop offset="1" stop-color="#231F20"></stop></linearGradient><linearGradient id="paint20_linear_284_392" x1="7.28218" y1="12.5812" x2="14.506" y2="6.04141" gradientUnits="userSpaceOnUse"><stop stop-color="#231F20"></stop><stop offset="1" stop-color="#231F20"></stop></linearGradient><clipPath id="clip0_284_392"><rect width="112.525" height="52" fill="white"></rect></clipPath></defs></svg>