<svg width="130" height="28" viewBox="0 0 130 28" fill="none" xmlns="http://www.w3.org/2000/svg">
<path d="M38.5921 18.0911V24.8103H34V5.65517H41.4387C43.6945 5.65517 45.4132 6.22414 46.5948 7.36207C47.7764 8.48194 48.3672 9.99918 48.3672 11.9138C48.3672 13.1059 48.0987 14.1716 47.5616 15.1108C47.0424 16.032 46.2636 16.7635 45.2252 17.3054C44.1869 17.8292 42.9247 18.0911 41.4387 18.0911H38.5921ZM40.9285 14.3793C42.7725 14.3793 43.6945 13.5575 43.6945 11.9138C43.6945 10.234 42.7725 9.39409 40.9285 9.39409H38.5921V14.3793H40.9285Z" fill="black"/>
<path d="M55.2189 12.5369C55.7918 11.6158 56.5258 10.8842 57.421 10.3424C58.3341 9.80049 59.3187 9.52956 60.375 9.52956V14.4877H59.0591C57.8417 14.4877 56.8929 14.7496 56.2125 15.2734C55.5501 15.7972 55.2189 16.6823 55.2189 17.9286V24.8103H50.6268V9.69212H55.2189V12.5369Z" fill="black"/>
<path d="M61.8673 5.43842C61.8673 4.73399 62.118 4.156 62.6193 3.70443C63.1205 3.23481 63.783 3 64.6065 3C65.43 3 66.0925 3.23481 66.5937 3.70443C67.095 4.156 67.3457 4.73399 67.3457 5.43842C67.3457 6.1248 67.095 6.70279 66.5937 7.17242C66.0925 7.62397 65.43 7.84975 64.6065 7.84975C63.783 7.84975 63.1205 7.62397 62.6193 7.17242C62.118 6.70279 61.8673 6.1248 61.8673 5.43842ZM66.8891 9.69212V24.8103H62.297V9.69212H66.8891Z" fill="black"/>
<path d="M79.5662 9.52956C81.2849 9.52956 82.6455 10.1076 83.6481 11.2635C84.6686 12.4195 85.1788 14.009 85.1788 16.032V24.8103H80.5867V16.5739C80.5867 15.5624 80.3181 14.7767 79.781 14.2167C79.2618 13.6388 78.5636 13.3498 77.6864 13.3498C76.7554 13.3498 76.0124 13.6478 75.4574 14.2438C74.9203 14.8399 74.6518 15.6888 74.6518 16.7906V24.8103H70.0597V9.69212H74.6518V12.4557C75.0815 11.5525 75.717 10.8391 76.5585 10.3153C77.4178 9.79146 78.4204 9.52956 79.5662 9.52956Z" fill="black"/>
<path d="M96.6936 20.8276V24.8103H94.6258C92.8713 24.8103 91.5017 24.3768 90.517 23.5099C89.5502 22.6248 89.0669 21.1708 89.0669 19.1478V13.5936H87.0528V9.69212H89.0669V5.9803H93.659V9.69212H96.6667V13.5936H93.659V19.2291C93.659 19.8251 93.7754 20.2406 94.0081 20.4754C94.2588 20.7102 94.6705 20.8276 95.2434 20.8276H96.6936Z" fill="black"/>
<path d="M113.507 16.8448C113.507 17.2241 113.463 17.6396 113.373 18.0911H102.98C103.034 19.2291 103.321 20.0509 103.84 20.5567C104.359 21.0443 105.021 21.2882 105.827 21.2882C106.507 21.2882 107.071 21.1166 107.519 20.7734C107.966 20.4302 108.262 19.9877 108.405 19.4458H113.266C113.069 20.5115 112.639 21.4688 111.977 22.3177C111.314 23.1486 110.473 23.8079 109.452 24.2956C108.432 24.7652 107.295 25 106.042 25C104.574 25 103.267 24.6929 102.121 24.0788C100.993 23.4466 100.107 22.5435 99.4625 21.3695C98.818 20.1954 98.4958 18.8227 98.4958 17.2512C98.4958 15.6617 98.8091 14.289 99.4357 13.133C100.08 11.959 100.975 11.0649 102.121 10.4507C103.267 9.81856 104.574 9.50246 106.042 9.50246C107.528 9.50246 108.835 9.80953 109.963 10.4236C111.091 11.0378 111.959 11.9048 112.568 13.0246C113.194 14.1264 113.507 15.3998 113.507 16.8448ZM108.862 16.1404C108.88 15.147 108.611 14.4064 108.056 13.9187C107.519 13.413 106.848 13.1601 106.042 13.1601C105.2 13.1601 104.502 13.413 103.947 13.9187C103.392 14.4245 103.079 15.165 103.007 16.1404H108.862Z" fill="black"/>
<path d="M122.669 9.50246C124.602 9.50246 126.222 10.0443 127.529 11.1281C128.836 12.1938 129.66 13.6658 130 15.5443H125.139C124.996 14.8941 124.701 14.3883 124.253 14.0271C123.806 13.6658 123.242 13.4852 122.561 13.4852C121.756 13.4852 121.093 13.8103 120.574 14.4606C120.055 15.0928 119.795 16.023 119.795 17.2512C119.795 18.4795 120.055 19.4187 120.574 20.069C121.093 20.7012 121.756 21.0172 122.561 21.0172C123.242 21.0172 123.806 20.8366 124.253 20.4754C124.701 20.1141 124.996 19.6084 125.139 18.9581H130C129.66 20.8366 128.836 22.3177 127.529 23.4015C126.222 24.4672 124.602 25 122.669 25C121.201 25 119.894 24.6929 118.748 24.0788C117.62 23.4466 116.734 22.5435 116.089 21.3695C115.445 20.1954 115.123 18.8227 115.123 17.2512C115.123 15.6617 115.436 14.289 116.062 13.133C116.707 11.959 117.602 11.0649 118.748 10.4507C119.894 9.81856 121.201 9.50246 122.669 9.50246Z" fill="black"/>
<g clip-path="url(#clip0_2809_444)">
<path d="M9.65263 9.65263C12.1579 7.14737 13.5579 3.83158 13.6316 0.294737V0H0V13.6316H0.221053C3.75789 13.6316 7.14737 12.1579 9.65263 9.65263Z" fill="#2D61F2"/>
<path d="M3.90526 24.0213C1.47368 21.516 0 18.1265 0 14.6634V14.3687H13.6316V28.0002H13.3368C9.8 28.0002 6.41053 26.5265 3.90526 24.0213Z" fill="#00B67A"/>
<path d="M14.3684 13.6316H21.1474C24.9053 13.6316 28 10.5368 28 6.85263C28 3.09474 24.9053 0 21.1474 0H14.3684V13.6316Z" fill="#7000FE"/>
</g>
<defs>
<clipPath id="clip0_2809_444">
<rect width="28" height="28" fill="white"/>
</clipPath>
</defs>
</svg>
